<svg width="410" height="360" viewBox="0 0 410 360" fill="none" xmlns="http://www.w3.org/2000/svg">
<g clip-path="url(#clip0_234_836)">
<path d="M0 175.26H55.7788V216.901H145.407V175.26H205V559.121H0V175.26Z" fill="url(#paint0_linear_234_836)"/>
<path d="M205 175.52H260.779V217.132H350.407V175.52L410 124.819V559.121H205V175.52Z" fill="url(#paint1_linear_234_836)"/>
<path d="M71.7919 149.211V101.544H101.245C110.504 101.544 117.812 99.3062 123.167 94.8309C128.634 90.3545 131.367 84.256 131.367 76.5355C131.367 68.9267 128.634 62.9405 123.167 58.5769C117.701 54.1011 110.114 51.8632 100.408 51.8632C90.9252 51.8632 83.2272 54.5485 77.314 59.9192C71.4015 65.1787 68.4452 72.0602 68.4452 80.5639H4.51854C4.62958 56.2829 13.7222 36.8134 31.7964 22.1554C49.8694 7.38513 73.7439 0 103.42 0C131.98 0 154.628 6.04233 171.362 18.127C188.209 30.0994 196.632 46.3241 196.632 66.8013C196.632 81.1236 191.946 93.32 182.575 103.39C173.203 113.349 161.099 119.671 146.261 122.357V123.699C164.223 125.713 178.503 131.812 189.101 141.994C199.7 152.065 205 165.268 205 181.605C205 204.208 195.517 222.223 176.551 235.65C157.585 248.965 132.093 255.623 100.073 255.623C70.8437 255.623 47.1363 248.294 28.9511 233.636C10.877 218.866 1.22658 199.116 0 174.388H67.6081C67.8308 182.443 70.9548 188.821 76.9801 193.522C83.0042 198.109 91.2039 200.403 101.579 200.403C110.951 200.403 118.482 198.053 124.171 193.353C129.973 188.542 132.873 182.22 132.873 174.388C132.873 166.443 130.028 160.289 124.338 155.925C118.761 151.449 110.951 149.211 100.91 149.211H71.7919ZM205 5.98448H301.616C336.028 5.98448 362.695 16.3046 381.617 36.9448C400.54 57.4721 410.001 87.0297 410 125.618C410 164.43 400.435 194.66 381.305 216.309C362.28 237.959 335.717 248.783 301.616 248.783H205V5.98448ZM271.517 62.6883V192.08H292.258C325.84 192.08 342.63 169.926 342.63 125.618C342.63 105.314 338.212 89.7783 329.374 79.0097C320.641 68.1287 308.269 62.6883 292.258 62.6883H271.517Z" fill="white"/>
</g>
<defs>
<linearGradient id="paint0_linear_234_836" x1="8.33019e-08" y1="290.131" x2="205.001" y2="285.383" gradientUnits="userSpaceOnUse">
<stop offset="0.354" stop-color="white"/>
<stop offset="1" stop-color="white" stop-opacity="0.8"/>
</linearGradient>
<linearGradient id="paint1_linear_234_836" x1="205" y1="290.313" x2="410.001" y2="285.561" gradientUnits="userSpaceOnUse">
<stop offset="0.323" stop-color="white"/>
<stop offset="1" stop-color="white" stop-opacity="0.8"/>
</linearGradient>
<clipPath id="clip0_234_836">
<rect width="410" height="361" fill="white"/>
</clipPath>
</defs>
</svg>
