<svg width="64" height="64" viewBox="0 0 64 64" fill="none" xmlns="http://www.w3.org/2000/svg">
<g clip-path="url(#clip0_2071_27)">
<path d="M23.6303 43.7274L27.6747 39.6831C32.9372 34.4206 38.6304 29.5662 44.936 25.6131C45.2398 25.4225 45.5211 25.1982 45.7745 24.9443L50.8161 19.9027C52.7037 18.0151 52.6719 14.9347 50.7204 13.0874C48.8395 11.3069 45.8555 11.4191 44.0241 13.2505L39.0524 18.2222C38.7986 18.4756 38.5742 18.7569 38.3836 19.0607C34.4305 25.3663 29.5761 31.0596 24.3136 36.322L14.6846 45.9511M14.6846 45.9511L18.0457 49.3121M14.6846 45.9511L4.60129 35.8679L1.24023 39.2289L11.3234 52.6733L24.7678 62.7565L28.1288 59.3954L18.0457 49.3121M18.0457 49.3121L22.1638 45.194M16.3651 47.6316L7.96235 56.0344M2.9207 50.9927L13.004 61.076" stroke="#4CDEB2" stroke-width="2" stroke-miterlimit="10"/>
<path d="M36.9889 31.2839L62.6716 56.9665L59.3105 60.3276L28.1301 39.2303M34.1426 43.2985L38.212 39.2291M38.212 45.9512L41.5732 42.5901M14.1307 8.42562L7.0366 1.33154L3.67554 4.6926L24.7728 35.873M32.7193 27.0142L15.5536 9.84859M20.7046 29.8605L24.774 25.7911M18.0519 25.7911L21.413 22.4301" stroke="#4CDEB2" stroke-width="2" stroke-miterlimit="10"/>
</g>
<defs>
<clipPath id="clip0_2071_27">
<rect width="64" height="64" fill="white"/>
</clipPath>
</defs>
</svg>
