<svg width="64" height="64" viewBox="0 0 64 64" fill="none" xmlns="http://www.w3.org/2000/svg">
<path d="M35.9839 33.068C36.1645 32.3976 36.1721 31.6923 36.006 31.0182L43.867 33.1245C44.9263 33.4083 45.5549 34.4973 45.2711 35.5566C44.9873 36.6159 43.8984 37.2445 42.8391 36.9607L34.978 34.8544C35.4589 34.3535 35.805 33.7389 35.9839 33.068ZM35.9839 33.068C35.3946 35.2677 33.1334 36.5731 30.9337 35.9838C28.734 35.3945 27.4286 33.1334 28.018 30.9337C28.3147 29.8265 29.0351 28.9463 29.9577 28.4198M35.9839 33.068C36.4799 31.2168 35.6337 29.3226 34.0421 28.4174M41.0347 16.3512C38.377 14.8134 35.2914 13.9328 32 13.9328M41.0347 16.3512L44.2143 10.844M41.0347 16.3512C43.7792 17.9403 46.0594 20.2205 47.6485 22.965M32 13.9328V7.57455M32 13.9328C28.7085 13.9328 25.6228 14.8133 22.9651 16.3512M32 7.57455C36.4498 7.57455 40.6212 8.76502 44.2143 10.844M32 7.57455C27.5502 7.57455 23.3786 8.76502 19.7856 10.844M44.2143 10.844C47.9246 12.9924 51.0074 16.0751 53.1557 19.7855M19.7856 10.844L22.9651 16.3512M19.7856 10.844C16.0752 12.9924 12.9924 16.0752 10.844 19.7856M22.9651 16.3512C20.2206 17.9403 17.9403 20.2206 16.3512 22.9651M16.3512 22.9651L10.844 19.7856M16.3512 22.9651C14.8134 25.6228 13.9329 28.7083 13.9329 31.9997M10.844 19.7856C8.76501 23.3787 7.57466 27.55 7.57466 31.9997M56.4252 31.9997H50.0669M56.4252 31.9997C56.4252 27.55 55.2347 23.3786 53.1557 19.7855M56.4252 31.9997C56.4252 35.9129 55.5045 39.6108 53.8686 42.8894C53.5041 43.6198 52.6003 43.8933 51.8933 43.4852L48.8292 41.7162C48.1876 41.3458 47.9401 40.543 48.2636 39.8765C49.4188 37.4959 50.0669 34.8237 50.0669 31.9997M50.0669 31.9997C50.0669 28.7083 49.1863 25.6227 47.6485 22.965M47.6485 22.965L53.1557 19.7855M13.9329 31.9997C13.9329 34.8236 14.581 37.4959 15.7363 39.8765C16.0597 40.543 15.8121 41.3458 15.1706 41.7162L12.1065 43.4851C11.3995 43.8932 10.4957 43.6197 10.1312 42.8892C8.49532 39.6108 7.57466 35.913 7.57466 31.9997M13.9329 31.9997H7.57466M34.0422 51.0157H40.7478C41.518 51.0157 42.1482 50.3855 42.1482 49.6153V45.0755C42.1482 44.3053 41.518 43.6751 40.7478 43.6751H23.2522C22.4819 43.6751 21.8518 44.3053 21.8518 45.0755V49.6153C21.8518 50.3855 22.4819 51.0157 23.2522 51.0157H29.9577M61 32C61 48.0163 48.0163 61 32 61C15.9837 61 3 48.0163 3 32C3 15.9837 15.9837 3 32 3C48.0163 3 61 15.9837 61 32Z" stroke="#4CDEB2" stroke-width="2" stroke-miterlimit="10" stroke-linecap="round" stroke-linejoin="round"/>
</svg>
