<svg width="64" height="64" viewBox="0 0 64 64" fill="none" xmlns="http://www.w3.org/2000/svg">
<path d="M26.7597 15.527C26.5221 14.9249 25.8417 14.6292 25.2395 14.8671C21.8402 16.2086 18.9391 18.511 16.85 21.5255C14.7107 24.612 13.5801 28.2355 13.5801 32.004C13.5801 32.6512 14.1049 33.1757 14.7519 33.1757C15.399 33.1757 15.9238 32.6511 15.9238 32.004C15.9238 25.3577 19.9181 19.4868 26.0998 17.0473C26.7019 16.8096 26.9973 16.1291 26.7597 15.527ZM39.7194 30.8432C39.0723 30.8432 38.5476 31.3679 38.5476 32.015C38.5476 35.6333 35.6037 38.5772 31.9851 38.5772C28.3664 38.5772 25.4225 35.6334 25.4225 32.015C25.4225 28.3966 28.3664 25.4528 31.9851 25.4528C32.6322 25.4528 33.1569 24.9282 33.1569 24.2811C33.1569 23.634 32.6321 23.1093 31.9851 23.1093C27.0741 23.1093 23.0789 27.1044 23.0789 32.015C23.0789 36.9256 27.0743 40.9207 31.9851 40.9207C36.8959 40.9207 40.8913 36.9256 40.8913 32.015C40.8913 31.3679 40.3666 30.8432 39.7194 30.8432ZM44.0636 30.7989C43.4165 30.7989 42.8918 31.3236 42.8918 31.9707V32.0149C42.8918 32.6621 43.4166 33.1866 44.0636 33.1866C44.7106 33.1866 45.2354 32.662 45.2354 32.0149V31.9707C45.2354 31.3236 44.7106 30.7989 44.0636 30.7989ZM39.3216 41.4859C39.1016 41.2665 38.8038 41.143 38.4931 41.1425C38.1824 41.1431 37.8846 41.2665 37.6645 41.4859C37.4454 41.7061 37.322 42.0038 37.3212 42.3144C37.3212 42.6226 37.4464 42.925 37.6645 43.1429C37.8848 43.3617 38.1826 43.4847 38.4931 43.4851C38.8013 43.4851 39.1037 43.3609 39.3216 43.1429C39.5405 42.9227 39.6639 42.625 39.6651 42.3144C39.6651 42.0049 39.5397 41.7039 39.3216 41.4859ZM58.0156 44.4887C57.3656 44.4882 56.7254 44.6477 56.1515 44.9531L52.6835 41.4853C52.4637 41.2655 52.1656 41.1421 51.8548 41.1421H43.3097C42.6625 41.1421 42.1379 41.6667 42.1379 42.3138C42.1379 42.9609 42.6627 43.4856 43.3097 43.4856H51.3693L54.4945 46.6106C54.1898 47.184 54.0306 47.8234 54.0311 48.4726C54.0311 50.6696 55.8185 52.4568 58.0155 52.4568C60.2126 52.4568 61.9999 50.6696 61.9999 48.4726C62 46.2758 60.2126 44.4887 58.0156 44.4887ZM58.0156 50.1134C57.1109 50.1134 56.375 49.3774 56.375 48.4729C56.375 47.5683 57.111 46.8324 58.0156 46.8324C58.9202 46.8324 59.6562 47.5683 59.6562 48.4729C59.6562 49.3774 58.9201 50.1134 58.0156 50.1134Z" fill="#4CDEB2"/>
<path d="M58.0156 11.547C55.8186 11.547 54.0312 13.3342 54.0312 15.5311C54.0308 16.1804 54.1899 16.8199 54.4947 17.3932L51.3695 20.5183H38.5464C36.9173 19.5869 35.0878 18.9951 33.1698 18.821V16.7029H45.5269C45.7365 16.7029 45.9422 16.6467 46.1226 16.5402C46.3031 16.4336 46.4517 16.2807 46.5529 16.0972L50.1141 9.64382C50.611 9.85829 51.1465 9.96869 51.6877 9.9682C53.8847 9.9682 55.6721 8.18096 55.6721 5.98404C55.6721 3.78723 53.8847 2 51.6877 2C49.4907 2 47.7033 3.78723 47.7033 5.98416C47.7033 6.75244 47.9225 7.46998 48.3007 8.07913L44.8351 14.3592H33.1698V3.17668C33.1698 2.52946 32.645 2.00492 31.9979 2.00492H26.7432C26.096 2.00492 25.5713 2.52957 25.5713 3.17668V6.80283C23.1538 7.41457 20.838 8.37424 18.6965 9.65179L16.1421 7.09768C16.0333 6.98879 15.9041 6.90242 15.7618 6.84351C15.6196 6.78459 15.4672 6.75428 15.3132 6.75431C15.1593 6.75435 15.0069 6.78472 14.8647 6.8437C14.7225 6.90267 14.5933 6.9891 14.4845 7.09803L7.07746 14.5102C6.62005 14.9679 6.62016 15.7095 7.07769 16.167L9.62913 18.7184C8.3516 20.8598 7.39195 23.1755 6.78025 25.5929H3.17183C2.52468 25.5929 2 26.1175 2 26.7646V37.2432C2 37.8905 2.5248 38.415 3.17183 38.415H6.78049C7.3922 40.8323 8.35184 43.1479 9.62937 45.2893L7.07793 47.8408C6.6204 48.2983 6.62028 49.0398 7.07769 49.4976L14.4847 56.9097C14.5935 57.0186 14.7227 57.105 14.8649 57.1639C15.0071 57.2229 15.1595 57.2533 15.3134 57.2533C15.6242 57.2533 15.9225 57.1298 16.1423 56.9101L18.6966 54.3561C20.8382 55.6334 23.1539 56.5931 25.5713 57.205V60.8254C25.5713 61.4724 26.0957 61.9968 26.7425 61.9972H31.9978C32.3085 61.9972 32.6065 61.8767 32.8263 61.6571C32.9352 61.5483 33.0216 61.4191 33.0805 61.2768C33.1394 61.1346 33.1698 60.9822 33.1698 60.8282V49.5912H44.833L48.3021 55.9188C47.9102 56.548 47.7028 57.2746 47.7034 58.0158C47.7034 60.2128 49.4908 62 51.6878 62C53.8849 62 55.6722 60.2128 55.6722 58.0158C55.6722 55.8189 53.8847 54.0317 51.6877 54.0317C51.1303 54.0317 50.5995 54.1471 50.1174 54.3548L46.5546 47.856C46.4536 47.6718 46.3049 47.5181 46.1241 47.411C45.9434 47.304 45.7371 47.2475 45.527 47.2474H33.1695V44.0926C33.1695 43.4454 32.6447 42.9209 31.9977 42.9209C25.9777 42.9209 21.0801 38.0236 21.0801 32.0039C21.0801 26.057 25.8601 21.2063 31.7799 21.0897C31.8476 21.1021 31.9162 21.1085 31.9851 21.1088C36.5206 21.1088 40.63 23.9635 42.2109 28.2121C42.2942 28.4363 42.4441 28.6295 42.6404 28.766C42.8367 28.9025 43.0701 28.9757 43.3092 28.9757C43.4487 28.9756 43.5871 28.9506 43.7178 28.9019C44.3244 28.6762 44.6332 28.0017 44.4075 27.3951C43.7668 25.673 42.7828 24.141 41.5531 22.8618H51.8548C52.1656 22.8618 52.4636 22.7383 52.6835 22.5186L56.1515 19.0507C56.7254 19.3561 57.3656 19.5156 58.0156 19.5151C60.2127 19.5151 62 17.7279 62 15.531C62 13.3342 60.2126 11.547 58.0156 11.547ZM51.6877 4.34364C52.5924 4.34364 53.3283 5.07958 53.3283 5.98416C53.3283 6.88873 52.5923 7.62467 51.6877 7.62467C50.7831 7.62467 50.0471 6.88873 50.0471 5.98416C50.0471 5.07958 50.783 4.34364 51.6877 4.34364ZM51.6877 56.3756C52.5924 56.3756 53.3283 57.1115 53.3283 58.0161C53.3283 58.9207 52.5922 59.6566 51.6877 59.6566C50.783 59.6566 50.0471 58.9207 50.0471 58.0161C50.0471 57.1115 50.783 56.3756 51.6877 56.3756ZM30.826 18.7947C24.0607 19.39 18.7363 25.0871 18.7363 32.004C18.7363 38.9209 24.0605 44.618 30.8259 45.2133V59.656L27.9149 59.6544V56.2761C27.9149 56.008 27.823 55.7481 27.6545 55.5397C27.4861 55.3312 27.2512 55.1868 26.9892 55.1304C24.1974 54.5307 21.5635 53.4393 19.1607 51.8866C18.9356 51.7411 18.6674 51.6772 18.4008 51.7055C18.1343 51.7339 17.8855 51.8527 17.696 52.0422L15.3138 54.4244L9.56339 48.67L11.9436 46.2899C12.1331 46.1004 12.2519 45.8516 12.2802 45.5851C12.3085 45.3186 12.2446 45.0504 12.0991 44.8253C10.5464 42.4226 9.45498 39.789 8.85542 36.9974C8.7991 36.7353 8.65466 36.5005 8.44617 36.3321C8.23769 36.1636 7.97776 36.0717 7.70972 36.0717H4.34366V27.9367H7.7096C7.97764 27.9367 8.23757 27.8448 8.44606 27.6764C8.65454 27.5079 8.79898 27.2731 8.8553 27.0111C9.45498 24.2194 10.5463 21.5859 12.099 19.1832C12.2445 18.958 12.3084 18.6899 12.2801 18.4234C12.2518 18.1568 12.133 17.9081 11.9435 17.7185L9.56327 15.3385L15.3137 9.58405L17.6959 11.9663C17.8854 12.1558 18.1342 12.2746 18.4007 12.3029C18.6673 12.3312 18.9354 12.2673 19.1606 12.1219C21.5633 10.5693 24.1971 9.47776 26.9891 8.878C27.2511 8.82168 27.4859 8.67725 27.6544 8.46878C27.8229 8.2603 27.9148 8.00039 27.9148 7.73237V4.34856H30.8258L30.826 18.7947ZM58.0156 17.1715C57.1109 17.1715 56.375 16.4356 56.375 15.531C56.375 14.6264 57.111 13.8905 58.0156 13.8905C58.9202 13.8905 59.6562 14.6264 59.6562 15.531C59.6562 16.4356 58.9202 17.1715 58.0156 17.1715Z" fill="#4CDEB2"/>
<path d="M58.0156 28.0345C56.2263 28.0345 54.709 29.2201 54.2074 30.8469H50.7499C50.1028 30.8469 49.5781 31.3715 49.5781 32.0186C49.5781 32.6657 50.1029 33.1904 50.7499 33.1904H54.2073C54.7089 34.8171 56.2262 36.0028 58.0155 36.0028C60.2126 36.0028 61.9999 34.2156 61.9999 32.0186C62 29.8217 60.2126 28.0345 58.0156 28.0345ZM58.0156 33.6591C57.1109 33.6591 56.375 32.9232 56.375 32.0186C56.375 31.1141 57.111 30.3781 58.0156 30.3781C58.9202 30.3781 59.6562 31.1141 59.6562 32.0186C59.6562 32.9232 58.9201 33.6591 58.0156 33.6591Z" fill="#4CDEB2"/>
</svg>
