<svg width="64" height="64" viewBox="0 0 64 64" fill="none" xmlns="http://www.w3.org/2000/svg">
<g clip-path="url(#clip0_2071_45)">
<path d="M25.1449 49.9483L24.7104 50.078C17.2301 52.2713 17.8573 59.1527 21.7673 61.0762C24.6228 62.4812 27.2961 62.1203 25.0784 59.0336C23.9641 57.4883 22.5628 54.7975 26.7075 53.5711L32.0016 52.0016M34.0756 32.857V9.48359M34.0756 47.3275V39.2549M29.9237 52.6181V60.9849C29.9237 62.1272 30.8594 63.0627 32.0015 63.0627C33.1436 63.0627 34.0756 62.1272 34.0756 60.9849V52.6181M29.9237 39.2549V47.3275M29.9237 9.48359V32.857M32.0016 33.7681L39.7866 30.3554C43.0169 28.9399 45.5466 26.6519 41.1846 25.1804C40.0003 24.781 39.2436 24.0487 38.8231 23.2884C38.1365 22.0341 37.7055 19.7111 38.5638 18.7161C39.2892 17.8787 40.7922 17.9872 42.2427 18.5478C44.0016 19.2311 45.6798 20.5766 46.7624 22.1112C48.9277 25.1699 50.1434 30.4815 43.8579 33.2075L37.2536 36.0735M21.5151 39.4616C22.7835 38.2879 24.5668 37.1561 26.8932 36.1366M32.0016 38.351L27.9267 40.1204C21.4695 42.9199 23.5964 45.4706 28.004 46.7635L39.2892 50.078C46.7694 52.2713 46.1423 59.1527 42.2322 61.0763C39.3767 62.4812 36.7035 62.1203 38.9212 59.0336C40.0355 57.4884 41.4368 54.7975 37.2956 53.5712L25.9052 50.1936C21.1228 48.7746 18.7508 46.1644 19.1748 43.3437M29.9239 13.653C25.1135 13.159 22.9096 9.81984 22.5628 9.34334C17.8503 2.79836 11.9363 6.45635 3.21557 3.05411C2.04894 2.59861 1.66007 2.51811 1.62845 3.76186C1.49882 8.60409 5.31081 10.6467 11.8695 10.7695M5.42631 9.65884C4.61006 14.9495 8.14868 17.1428 14.6515 17.2619M25.32 23.3304C26.864 23.1218 28.3997 22.8554 29.9237 22.5315M8.66017 16.1968C7.9278 20.9128 12.5878 23.3935 15.8742 23.6878M54.9048 4.52923C56.7162 4.29098 58.6678 3.88098 60.7875 3.05411C61.9543 2.59874 62.3396 2.51811 62.371 3.76186C62.5008 8.60422 58.6887 10.6467 52.1299 10.7695M34.0756 13.653C38.8862 13.159 41.0935 9.81984 41.4368 9.34347C44.0434 5.7241 47.0181 5.22298 50.6304 4.92523M58.5732 9.65884C59.393 14.9495 55.8509 17.1428 49.3481 17.2619M38.6515 23.3268C37.25 23.1375 35.7223 22.8783 34.0757 22.5315M55.3393 16.1967C56.0715 20.9128 51.4117 23.3689 48.1253 23.6878M32.0016 9.98809C34.4927 9.98809 36.5248 7.95597 36.5248 5.46122C36.5248 2.97011 34.4927 0.937988 32.0016 0.937988C29.507 0.937988 27.4749 2.97011 27.4749 5.46122C27.4749 7.95597 29.507 9.98809 32.0016 9.98809ZM17.2371 22.1112C15.0719 25.1698 13.856 30.4815 20.1451 33.2074L36.0727 40.1204C42.5299 42.9197 40.4032 45.4706 35.9957 46.7635L32.0016 47.9371L38.8547 49.9483C47.0532 47.1279 47.0112 40.348 36.8715 35.9053L24.2129 30.3554C20.986 28.9399 18.4564 26.6519 22.8149 25.1803C24.0026 24.7809 24.756 24.0487 25.1764 23.2884C25.8631 22.0341 26.294 19.7111 25.4356 18.7161C24.7139 17.8786 23.2074 17.9872 21.7604 18.5478C19.998 19.2311 18.3196 20.5764 17.2371 22.1112Z" stroke="#4CDEB2" stroke-width="2" stroke-miterlimit="10" stroke-linecap="round" stroke-linejoin="round"/>
</g>
<defs>
<clipPath id="clip0_2071_45">
<rect width="64" height="64" fill="white"/>
</clipPath>
</defs>
</svg>
