<svg width="64" height="64" viewBox="0 0 64 64" fill="none" xmlns="http://www.w3.org/2000/svg">
<g clip-path="url(#clip0_2071_68)">
<path d="M58.6666 18.1333C53.792 18.1333 50.784 25.6 43.7333 25.6C40.4053 25.6 36.896 24.6827 35.6586 22.2613C38.1653 19.9573 40.352 18.4747 41.856 18.1013C46.3893 16.9707 50.1333 15.7867 50.1333 12.8C50.2015 12.0862 50.0514 11.3685 49.7028 10.7419C49.3543 10.1153 48.8237 9.60922 48.1813 9.29067C48.3651 9.12078 48.5296 8.9312 48.672 8.72533C50.5509 9.18951 52.4681 9.48227 54.4 9.6C57.6 9.6 60.8 7.76533 60.8 4.26667C60.8 1.35467 56.736 0 48 0C41.3546 0 37.952 2.21867 37.792 2.32533L24.4266 11.5093C16.8 16.7573 18.5706 23.2427 9.00264 36.0427C8.75327 36.3844 8.57412 36.7721 8.47556 37.1835C8.377 37.5949 8.36098 38.0217 8.42844 38.4393C8.49589 38.8569 8.64547 39.257 8.86853 39.6165C9.09159 39.9759 9.38371 40.2875 9.72797 40.5333L12.2453 42.304C11.778 43.3695 11.6262 44.5468 11.808 45.696C9.43997 48 6.84797 51.3173 6.45331 55.4667H4.42664C3.75194 55.4506 3.08945 55.6483 2.53387 56.0315C1.97829 56.4146 1.55808 56.9636 1.33331 57.6L0.117305 61.184C0.00904413 61.5045 -0.0214347 61.8462 0.0283846 62.1808C0.0782039 62.5154 0.206893 62.8334 0.403829 63.1085C0.600765 63.3836 0.860301 63.6079 1.16101 63.7629C1.46173 63.9179 1.79499 63.9992 2.13331 64H19.2C19.541 64.0043 19.8781 63.9268 20.1829 63.7739C20.4878 63.6211 20.7516 63.3974 20.9522 63.1216C21.1528 62.8458 21.2843 62.5259 21.3358 62.1888C21.3872 61.8517 21.3571 61.5071 21.248 61.184L20 57.6C19.7752 56.9636 19.355 56.4146 18.7994 56.0315C18.2438 55.6483 17.5813 55.4506 16.9066 55.4667H15.1573C15.9216 53.7912 17.0821 52.3268 18.5386 51.2C19.9791 51.0901 21.34 50.4961 22.4 49.5147C24.3626 50.8907 25.0026 51.552 26.3146 51.552C26.7475 51.5518 27.1758 51.4638 27.5737 51.2933C27.9715 51.1228 28.3306 50.8733 28.6293 50.56C31.3606 47.8188 34.4628 45.4742 37.8453 43.5947C50.9333 36.128 40.48 44.2453 62.88 25.4613C63.3426 25.0551 63.6783 24.5241 63.8466 23.9319C64.015 23.3397 64.009 22.7115 63.8293 22.1227C63.5236 20.9845 62.8532 19.978 61.9207 19.2575C60.9882 18.5369 59.8451 18.142 58.6666 18.1333ZM41.344 16C39.0707 16.784 36.9958 18.0544 35.264 19.7227C35.872 16.768 41.664 14.592 42.5386 11.552C43.5552 11.3463 44.5566 11.0719 45.536 10.7307C48 11.04 48 11.8933 48 12.8C48 14.368 43.6693 15.4453 41.344 16ZM17.984 58.336L19.2 61.8667H2.13331L3.34931 58.3253C3.43021 58.1081 3.57593 57.921 3.76673 57.7893C3.95752 57.6577 4.18417 57.5879 4.41597 57.5893H16.896C17.1327 57.5842 17.365 57.6535 17.5602 57.7875C17.7554 57.9215 17.9036 58.1133 17.984 58.336ZM12.9173 55.4667H8.65064C9.137 52.6139 10.5326 49.9947 12.6293 48C13.3627 49.2799 14.5157 50.2671 15.8933 50.7947C14.5032 52.0594 13.4759 53.6723 12.9173 55.4667ZM20.6293 48.2453C19.9087 48.7604 19.0456 49.0384 18.1598 49.0407C17.274 49.0431 16.4095 48.7698 15.6861 48.2586C14.9627 47.7474 14.4163 47.0237 14.1228 46.188C13.8293 45.3523 13.8031 44.4459 14.048 43.5947L20.6293 48.2453ZM61.5146 23.7973C39.52 42.2827 49.7813 34.3253 36.8 41.7387C33.2441 43.7155 29.9838 46.1822 27.1146 49.0667C26.9394 49.2566 26.7011 49.3765 26.444 49.404C26.187 49.4314 25.9288 49.3646 25.7173 49.216L10.9653 38.8053C10.7401 38.6408 10.5882 38.3945 10.5424 38.1194C10.4965 37.8442 10.5603 37.562 10.72 37.3333C20.3733 24.3947 18.72 18.0587 25.6533 13.3013L38.9866 4.08533C38.9866 4.08533 42.0586 2.13333 48 2.13333C56.4373 2.13333 58.6666 3.53067 58.6666 4.26667C58.6666 6.79467 55.872 7.46667 54.4 7.46667C52.4453 7.31978 50.5073 7.00212 48.608 6.51733C48.282 6.03419 48.0202 5.51068 47.8293 4.96C47.7863 4.82131 47.7154 4.69287 47.6209 4.58254C47.5265 4.47222 47.4105 4.38234 47.2801 4.31842C47.1498 4.25449 47.0077 4.21786 46.8626 4.21077C46.7176 4.20368 46.5726 4.22628 46.4366 4.27719C46.3006 4.3281 46.1765 4.40625 46.0717 4.50684C45.967 4.60743 45.8839 4.72834 45.8275 4.86218C45.7712 4.99601 45.7427 5.13994 45.7439 5.28516C45.7452 5.43037 45.776 5.5738 45.8346 5.70667C46.08 6.4 46.4085 7.05813 46.816 7.66933C46.336 8.224 44.32 9.04533 41.984 9.504C41.5502 9.00669 41.1477 8.48302 40.7786 7.936C40.7056 7.80853 40.607 7.69752 40.4891 7.60993C40.3712 7.52234 40.2364 7.46006 40.0933 7.42698C39.9501 7.39391 39.8017 7.39076 39.6573 7.41773C39.5129 7.4447 39.3756 7.50121 39.2541 7.58371C39.1325 7.66622 39.0293 7.77294 38.9509 7.8972C38.8726 8.02145 38.8207 8.16056 38.7986 8.30579C38.7765 8.45103 38.7846 8.59926 38.8225 8.7412C38.8604 8.88315 38.9271 9.01574 39.0186 9.13067C39.4617 9.792 39.9452 10.4213 40.4693 11.0187C39.6906 13.4187 33.0666 15.6587 33.0666 20.2667C33.0751 20.9915 33.1938 21.7109 33.4186 22.4C34.5493 25.696 38.4 27.7333 43.7333 27.7333C51.4453 27.7333 55.136 20.2667 58.6666 20.2667C59.3973 20.26 60.1092 20.4978 60.689 20.9424C61.2689 21.387 61.6834 22.0127 61.8666 22.72C61.9151 22.9145 61.9078 23.1187 61.8456 23.3093C61.7833 23.4998 61.6686 23.669 61.5146 23.7973Z" fill="#4CDEB2"/>
<path d="M33.9413 11.4453C33.7815 11.212 33.5355 11.0516 33.2574 10.9996C32.9794 10.9476 32.6921 11.0082 32.4587 11.168L28.192 14.1013C28.0231 14.2362 27.8991 14.4193 27.8365 14.6263C27.774 14.8332 27.7758 15.0543 27.8417 15.2602C27.9076 15.4661 28.0346 15.6471 28.2057 15.7792C28.3769 15.9113 28.5841 15.9883 28.8 16C29.2587 16 29.0773 16 33.6747 12.8853C33.8945 12.7247 34.0446 12.4861 34.0942 12.2183C34.1438 11.9506 34.0891 11.6741 33.9413 11.4453ZM24.2027 17.4613C23.3563 18.4984 22.6696 19.656 22.1653 20.896C22.0924 21.0583 22.0612 21.2362 22.0746 21.4136C22.088 21.591 22.1455 21.7623 22.242 21.9118C22.3385 22.0612 22.4708 22.1842 22.627 22.2695C22.7831 22.3548 22.9581 22.3996 23.136 22.4C24.3733 22.4 23.9253 21.1413 25.8453 18.8053C25.951 18.7 26.0333 18.5737 26.0871 18.4346C26.1409 18.2955 26.1649 18.1466 26.1576 17.9976C26.1503 17.8486 26.1118 17.7029 26.0446 17.5697C25.9775 17.4365 25.8831 17.3189 25.7677 17.2244C25.6522 17.13 25.5183 17.0608 25.3744 17.0213C25.2306 16.9818 25.08 16.973 24.9326 16.9953C24.7851 17.0176 24.6439 17.0707 24.5182 17.1509C24.3925 17.2312 24.285 17.3369 24.2027 17.4613Z" fill="#4CDEB2"/>
</g>
<defs>
<clipPath id="clip0_2071_68">
<rect width="64" height="64" fill="white"/>
</clipPath>
</defs>
</svg>
