<svg width="64" height="64" viewBox="0 0 64 64" fill="none" xmlns="http://www.w3.org/2000/svg">
<path d="M34 52C35.3845 52 36.7378 51.5895 37.889 50.8203C39.0401 50.0511 39.9373 48.9579 40.4672 47.6788C40.997 46.3997 41.1356 44.9922 40.8655 43.6344C40.5954 42.2765 39.9287 41.0292 38.9497 40.0503C37.9708 39.0713 36.7235 38.4046 35.3656 38.1345C34.0078 37.8644 32.6003 38.003 31.3212 38.5328C30.0421 39.0627 28.9489 39.9599 28.1797 41.111C27.4105 42.2622 27 43.6155 27 45C27.0021 46.8559 27.7403 48.6351 29.0526 49.9474C30.3649 51.2598 32.1441 51.9979 34 52ZM34 40C34.9889 40 35.9556 40.2932 36.7779 40.8427C37.6001 41.3921 38.241 42.173 38.6194 43.0866C38.9978 44.0002 39.0969 45.0056 38.9039 45.9755C38.711 46.9454 38.2348 47.8363 37.5355 48.5355C36.8363 49.2348 35.9454 49.711 34.9755 49.9039C34.0055 50.0969 33.0002 49.9978 32.0866 49.6194C31.173 49.241 30.3921 48.6001 29.8427 47.7779C29.2932 46.9556 29 45.9889 29 45C29.0015 43.6744 29.5288 42.4035 30.4661 41.4662C31.4035 40.5288 32.6744 40.0015 34 40Z" fill="#4CDEB2"/>
<path d="M47.9164 48.6307L50.2331 48.0752C50.4516 48.0229 50.6461 47.8984 50.7852 47.722C50.9244 47.5456 51 47.3274 51 47.1027V42.897C51 42.6723 50.9244 42.4542 50.7852 42.2777C50.6461 42.1013 50.4516 41.9769 50.2331 41.9245L47.9165 41.3691C47.543 41.2796 47.1961 41.1029 46.904 40.8535C46.6119 40.6042 46.3829 40.2892 46.2359 39.9344C46.0889 39.5796 46.0279 39.1951 46.058 38.8122C46.0881 38.4293 46.2084 38.059 46.409 37.7315L47.662 35.6867C47.7794 35.4952 47.8289 35.2698 47.8025 35.0467C47.7761 34.8236 47.6753 34.616 47.5165 34.4571L44.5425 31.4836C44.3837 31.3248 44.176 31.2241 43.953 31.1977C43.7299 31.1713 43.5045 31.2208 43.313 31.3381L41.2683 32.5911C40.9408 32.7918 40.5705 32.912 40.1876 32.9421C39.8047 32.9722 39.4202 32.9112 39.0654 32.7642C38.7106 32.6171 38.3957 32.3882 38.1463 32.0961C37.897 31.804 37.7203 31.4571 37.6308 31.0836L37.0753 28.7669C37.0229 28.5484 36.8984 28.3539 36.722 28.2148C36.5456 28.0756 36.3274 28 36.1028 28H31.897C31.6723 28 31.4542 28.0756 31.2777 28.2148C31.1013 28.3539 30.9769 28.5484 30.9245 28.7669L30.3691 31.0835C30.2796 31.457 30.1029 31.8039 29.8535 32.0961C29.6042 32.3882 29.2892 32.6171 28.9344 32.7641C28.5796 32.9111 28.1951 32.9721 27.8122 32.942C27.4293 32.9119 27.059 32.7917 26.7315 32.591L24.6868 31.338L23.6418 33.0434L25.6864 34.2962C26.283 34.6618 26.9577 34.881 27.6552 34.9359C28.3528 34.9907 29.0535 34.8797 29.6999 34.6118C30.3463 34.3439 30.9201 33.9269 31.3745 33.3947C31.8288 32.8626 32.1507 32.2304 32.3139 31.55L32.6855 30H35.3143L35.6859 31.55C35.849 32.2304 36.1709 32.8626 36.6252 33.3948C37.0795 33.9269 37.6534 34.344 38.2998 34.6119C38.9462 34.8798 39.6468 34.9908 40.3444 34.936C41.042 34.8811 41.7166 34.662 42.3133 34.2964L43.6858 33.4554L45.5446 35.3141L44.7036 36.6866C44.338 37.2832 44.1189 37.9579 44.064 38.6555C44.0092 39.3531 44.1202 40.0537 44.3881 40.7001C44.6559 41.3465 45.073 41.9204 45.6052 42.3747C46.1373 42.829 46.7695 43.1509 47.4499 43.3141L48.9999 43.6856V46.3144L47.4499 46.686C46.7694 46.8491 46.1373 47.171 45.6051 47.6253C45.0729 48.0796 44.6559 48.6535 44.388 49.2999C44.1201 49.9463 44.0091 50.6469 44.0639 51.3445C44.1187 52.0421 44.3379 52.7168 44.7035 53.3134L45.5445 54.6859L43.6858 56.5448L42.3133 55.7038C41.7166 55.3382 41.042 55.119 40.3444 55.0641C39.6468 55.0093 38.9462 55.1203 38.2998 55.3882C37.6533 55.656 37.0795 56.0731 36.6252 56.6053C36.1708 57.1374 35.8489 57.7696 35.6858 58.45L35.3143 60H32.6855L32.3139 58.45C32.1507 57.7696 31.8288 57.1374 31.3745 56.6052C30.9202 56.0731 30.3464 55.656 29.7 55.3881C29.0536 55.1202 28.3529 55.0092 27.6554 55.064C26.9578 55.1189 26.2831 55.338 25.6865 55.7036L23.6419 56.9565L24.6869 58.6619L26.7315 57.4089C27.059 57.2082 27.4293 57.088 27.8122 57.0579C28.195 57.0278 28.5796 57.0888 28.9343 57.2358C29.2891 57.3829 29.6041 57.6118 29.8534 57.9039C30.1028 58.196 30.2794 58.5429 30.369 58.9164L30.9245 61.2331C30.9769 61.4516 31.1013 61.6461 31.2777 61.7852C31.4542 61.9244 31.6723 62 31.897 62H36.1028C36.3274 62 36.5456 61.9244 36.722 61.7852C36.8984 61.6461 37.0229 61.4516 37.0753 61.2331L37.6306 58.9165C37.7202 58.543 37.8969 58.196 38.1462 57.9039C38.3956 57.6118 38.7105 57.3829 39.0653 57.2359C39.4201 57.0888 39.8047 57.0279 40.1876 57.058C40.5705 57.0881 40.9408 57.2083 41.2683 57.409L43.313 58.662C43.5045 58.7794 43.73 58.8288 43.953 58.8025C44.1761 58.7761 44.3838 58.6753 44.5426 58.5165L47.5163 55.5427C47.6751 55.3839 47.7758 55.1762 47.8022 54.9532C47.8286 54.7301 47.7791 54.5046 47.6618 54.3131L46.4088 52.2684C46.2081 51.9409 46.0879 51.5706 46.0578 51.1877C46.0277 50.8049 46.0887 50.4203 46.2357 50.0655C46.3827 49.7108 46.6117 49.3958 46.9038 49.1465C47.1958 48.8971 47.5428 48.7204 47.9163 48.6309L47.9164 48.6307Z" fill="#4CDEB2"/>
<path d="M61 30H57V25C57 24.7348 56.8946 24.4804 56.7071 24.2929C56.5196 24.1054 56.2652 24 56 24H52C51.7348 24 51.4804 24.1054 51.2929 24.2929C51.1054 24.4804 51 24.7348 51 25V30H48V32H60V36H49V38H60V42H53V44H60V48H53V50H60V54H50V56H51V61C51 61.2652 51.1054 61.5196 51.2929 61.7071C51.4804 61.8946 51.7348 62 52 62H56C56.2652 62 56.5196 61.8946 56.7071 61.7071C56.8946 61.5196 57 61.2652 57 61V56H61C61.2652 56 61.5196 55.8946 61.7071 55.7071C61.8946 55.5196 62 55.2652 62 55V31C62 30.7348 61.8946 30.4804 61.7071 30.2929C61.5196 30.1054 61.2652 30 61 30ZM55 30H53V26H55V30ZM55 60H53V56H55V60ZM17.2851 30.715L16.7149 32.6321C18.9842 33.3071 20 34.3077 20 35C20 35.6211 19.2175 36.3548 17.9579 36.9145C16.383 37.6145 14.2671 38 12 38C7.1165 38 4 36.2231 4 35C4 34.3077 5.01575 33.3071 7.28512 32.6321L6.715 30.715C3.7185 31.6063 2 33.1683 2 35V57.2858C2 58.7094 3.15575 59.9704 5.2545 60.8364C7.07263 61.5868 9.46825 62 12 62C14.5317 62 16.9274 61.5868 18.7455 60.8364C20.8442 59.9704 22 58.7094 22 57.2858V35C22 33.1683 20.2815 31.6065 17.2851 30.715ZM6 58.9804C4.78463 58.4754 4 57.8114 4 57.2859V55.0721C4.62597 55.4765 5.29722 55.806 6 56.0539V58.9804ZM11 59.9757C9.9911 59.9322 8.98761 59.8044 8 59.5938V56.6125C8.98887 56.8127 9.99197 56.9346 11 56.9771V59.9757ZM16 59.5938C15.0124 59.8044 14.0089 59.9322 13 59.9757V56.9771C14.008 56.9346 15.0111 56.8128 16 56.6126V59.5938ZM20 57.2859C20 57.8114 19.2154 58.4754 18 58.9804V56.0537C18.7028 55.8059 19.374 55.4764 20 55.0721V57.2859ZM20 52C20 52.6211 19.2175 53.3548 17.9579 53.9145C16.383 54.6145 14.2671 55 12 55C7.1165 55 4 53.2231 4 52V38.0721C5.7945 39.2594 8.65525 40 12 40C15.3447 40 18.2055 39.2594 20 38.0721V52Z" fill="#4CDEB2"/>
<path d="M6 41H8V52H6V41ZM11 42H13V53H11V42ZM16 41H18V52H16V41ZM11 27C11 26.7348 11.1054 26.4804 11.2929 26.2929C11.4804 26.1054 11.7348 26 12 26C12.2652 26 12.5196 26.1054 12.7071 26.2929C12.8946 26.4804 13 26.7348 13 27V35H15V27C15 26.2044 14.6839 25.4413 14.1213 24.8787C13.5587 24.3161 12.7956 24 12 24C11.2044 24 10.4413 24.3161 9.87868 24.8787C9.31607 25.4413 9 26.2044 9 27V35H11V27ZM14 22H28.5L31.2 25.6C31.2931 25.7242 31.4139 25.825 31.5528 25.8944C31.6916 25.9639 31.8448 26 32 26C32.1552 26 32.3084 25.9639 32.4472 25.8944C32.5861 25.825 32.7069 25.7242 32.8 25.6L35.5 22H50C50.7954 21.9991 51.5579 21.6828 52.1203 21.1203C52.6828 20.5579 52.9991 19.7954 53 19V5C52.9991 4.20462 52.6828 3.44208 52.1203 2.87967C51.5579 2.31725 50.7954 2.00089 50 2H14C13.2046 2.00089 12.4421 2.31725 11.8797 2.87967C11.3173 3.44208 11.0009 4.20462 11 5V19C11.0009 19.7954 11.3173 20.5579 11.8797 21.1203C12.4421 21.6828 13.2046 21.9991 14 22ZM13 5C13.0003 4.73488 13.1058 4.48072 13.2933 4.29326C13.4807 4.10579 13.7349 4.00033 14 4H50C50.2651 4.00033 50.5193 4.10579 50.7067 4.29326C50.8942 4.48072 50.9997 4.73488 51 5V19C50.9997 19.2651 50.8942 19.5193 50.7067 19.7067C50.5193 19.8942 50.2651 19.9997 50 20H35C34.8448 20 34.6916 20.0361 34.5528 20.1056C34.4139 20.175 34.2931 20.2758 34.2 20.4L32 23.3334L29.8 20.4C29.7069 20.2758 29.5861 20.175 29.4472 20.1056C29.3084 20.0361 29.1552 20 29 20H14C13.7349 19.9997 13.4807 19.8942 13.2933 19.7067C13.1058 19.5193 13.0003 19.2651 13 19V5Z" fill="#4CDEB2"/>
<path d="M22 18H26C27.5913 18 29.1174 17.3679 30.2426 16.2426C31.3679 15.1174 32 13.5913 32 12C32 10.4087 31.3679 8.88258 30.2426 7.75736C29.1174 6.63214 27.5913 6 26 6H22C20.4087 6 18.8826 6.63214 17.7574 7.75736C16.6321 8.88258 16 10.4087 16 12C16 13.5913 16.6321 15.1174 17.7574 16.2426C18.8826 17.3679 20.4087 18 22 18ZM29.8734 11H27.9151C27.7285 9.89726 27.2365 8.86892 26.4949 8.03175C27.2902 8.13214 28.0372 8.46859 28.6394 8.99769C29.2416 9.52678 29.6714 10.2242 29.8734 11ZM27.9151 13H29.8734C29.6714 13.7758 29.2416 14.4732 28.6394 15.0023C28.0372 15.5314 27.2902 15.8679 26.4949 15.9683C27.2364 15.1311 27.7286 14.1027 27.9151 13ZM22 8C22.7911 8 23.5645 8.2346 24.2223 8.67412C24.8801 9.11365 25.3928 9.73836 25.6955 10.4693C25.9983 11.2002 26.0775 12.0044 25.9231 12.7804C25.7688 13.5563 25.3878 14.269 24.8284 14.8284C24.269 15.3878 23.5563 15.7688 22.7804 15.9231C22.0044 16.0775 21.2002 15.9983 20.4693 15.6955C19.7384 15.3928 19.1136 14.8801 18.6741 14.2223C18.2346 13.5645 18 12.7911 18 12C18.0012 10.9395 18.423 9.92281 19.1729 9.17292C19.9228 8.42304 20.9395 8.00122 22 8ZM40 12.4141L41.2929 13.7071C41.4805 13.8946 41.7348 13.9999 42 13.9999C42.2652 13.9999 42.5195 13.8946 42.7071 13.7071L47 9.41425V12H49V7C49 6.73478 48.8946 6.48043 48.7071 6.29289C48.5196 6.10536 48.2652 6 48 6H43V8H45.5858L42 11.5859L40.7071 10.2929C40.5195 10.1054 40.2652 10.0001 40 10.0001C39.7348 10.0001 39.4805 10.1054 39.2929 10.2929L33.2929 16.2929L34.7071 17.7071L40 12.4141Z" fill="#4CDEB2"/>
</svg>
