<svg width="64" height="64" viewBox="0 0 64 64" fill="none" xmlns="http://www.w3.org/2000/svg">
<path d="M49 48C50.654 48 52 46.654 52 45C52 43.346 50.654 42 49 42C47.346 42 46 43.346 46 45C46 46.654 47.346 48 49 48ZM49 44C49.1981 43.9998 49.3917 44.0584 49.5565 44.1683C49.7213 44.2782 49.8497 44.4345 49.9256 44.6175C50.0015 44.8004 50.0214 45.0018 49.9828 45.196C49.9442 45.3903 49.8489 45.5688 49.7088 45.7088C49.5688 45.8489 49.3903 45.9442 49.196 45.9828C49.0018 46.0214 48.8004 46.0015 48.6175 45.9256C48.4345 45.8497 48.2782 45.7213 48.1683 45.5565C48.0584 45.3917 47.9998 45.1981 48 45C48 44.448 48.449 44 49 44Z" fill="#4CDEB2"/>
<path d="M59.16 40.778C59.0115 40.4265 58.9711 40.0387 59.0439 39.6642C59.1168 39.2896 59.2996 38.9452 59.569 38.675L61.024 37.219L56.78 32.975L55.323 34.431C54.772 34.983 53.946 35.143 53.182 34.823C52.8319 34.6787 52.5326 34.4335 52.3222 34.1187C52.1117 33.8039 51.9996 33.4337 52 33.055V31H49.949C49.8631 29.4177 49.5651 27.854 49.063 26.351L60.635 14.779C61.387 14.0312 61.9833 13.1417 62.3892 12.1619C62.7952 11.1821 63.0028 10.1315 63 9.071C63 4.621 59.379 1 54.929 1C52.773 1 50.746 1.84 49.222 3.364L37.662 14.925C36.1366 14.4198 34.5499 14.1234 32.945 14.044C31.565 11.633 28.972 10 26 10C25.239 10 24.505 10.114 23.806 10.313C22.08 7.068 18.727 5 15 5C9.486 5 5 9.486 5 15C5 15.766 5.094 16.52 5.265 17.258C4.03274 17.6319 2.95316 18.3917 2.18531 19.4255C1.41746 20.4592 1.00195 21.7123 1 23C1 26.309 3.691 29 7 29H14.254C14.0857 29.9912 14.0007 30.9947 14 32C14 34.201 14.407 35.992 15.064 37.522L6.143 46.444L1.179 59.35C0.994309 59.8349 0.953818 60.3629 1.06241 60.8703C1.17099 61.3778 1.42403 61.8429 1.791 62.2098C2.15798 62.5767 2.62324 62.8296 3.13069 62.938C3.63814 63.0465 4.16612 63.0058 4.651 62.821L17.557 57.857L24.08 51.333C24.031 51.548 24 51.77 24 52C24 52.771 24.301 53.468 24.78 54C24.2806 54.5466 24.0025 55.2596 24 56C24 57.39 24.955 58.552 26.24 58.89C27.092 61.33 29.374 63 32 63C34.626 63 36.908 61.33 37.76 58.89C38.4 58.7231 38.9668 58.3491 39.372 57.8263C39.7772 57.3036 39.998 56.6614 40 56C40 55.925 39.983 55.855 39.978 55.782L41.22 57.024L42.677 55.568C43.228 55.016 44.051 54.855 44.817 55.174C45.1678 55.3184 45.4676 55.5639 45.6783 55.8793C45.8889 56.1947 46.0009 56.5657 46 56.945V59H52V56.945C52 56.167 52.465 55.472 53.222 55.159C53.5734 55.0107 53.9609 54.9704 54.3353 55.0432C54.7097 55.1161 55.0539 55.2988 55.324 55.568L56.78 57.024L61.024 52.78L59.569 51.324C59.018 50.772 58.857 49.947 59.176 49.183C59.3202 48.8326 59.5655 48.533 59.8805 48.3223C60.1955 48.1116 60.566 47.9995 60.945 48H63V42H60.945C60.167 42 59.473 41.535 59.16 40.778ZM44.176 43.726C45.267 42.661 46.36 41.573 47.303 40.315C47.8461 40.1124 48.4203 40.0058 49 40C51.757 40 54 42.243 54 45C54 47.757 51.757 50 49 50C46.243 50 44 47.757 44 45C44 44.567 44.067 44.141 44.176 43.726ZM45.377 20.038L50 15.414L53.586 19L48.245 24.341C47.4987 22.7775 46.5329 21.3285 45.377 20.038ZM46.414 9L48 7.414L56.586 16L55 17.586L46.414 9ZM54.929 3C56.5384 3.00238 58.0812 3.64277 59.2192 4.78078C60.3572 5.9188 60.9976 7.4616 61 9.071C61.0023 9.8686 60.8463 10.6587 60.5411 11.3956C60.2359 12.1325 59.7876 12.8016 59.222 13.364L58 14.586L49.414 6L50.636 4.778C51.1984 4.21244 51.8675 3.76408 52.6044 3.45888C53.3413 3.15368 54.1314 2.99771 54.929 3ZM45 10.414L48.586 14L43.965 18.621C42.6761 17.4631 41.2277 16.4962 39.664 15.75L45 10.414ZM48 32C48 37.203 45.38 39.759 42.606 42.464C40.696 44.327 38.734 46.253 37.592 49.06C37.3971 49.0204 37.1988 49.0003 37 49H33V44C33 42.346 31.654 41 30 41H28C27.7425 40.9885 27.4994 40.8781 27.3213 40.6918C27.1431 40.5055 27.0437 40.2577 27.0437 40C27.0437 39.7423 27.1431 39.4945 27.3213 39.3082C27.4994 39.1219 27.7425 39.0115 28 39H38C39.654 39 41 37.654 41 36C41 34.346 39.654 33 38 33H30C29.449 33 29 32.552 29 32V29H34C36.757 29 39 26.757 39 24C39 21.243 36.757 19 34 19C33.972 19 33.946 19.008 33.918 19.008C33.961 18.674 34 18.34 34 18C33.9974 17.3608 33.9181 16.7243 33.764 16.104C41.736 16.992 48 23.834 48 32ZM26 52C26 51.448 26.449 51 27 51H37C37.2575 51.0115 37.5006 51.1219 37.6787 51.3082C37.8568 51.4945 37.9563 51.7423 37.9563 52C37.9563 52.2577 37.8568 52.5055 37.6787 52.6918C37.5006 52.8781 37.2575 52.9885 37 53H27C26.449 53 26 52.552 26 52ZM13.414 52L20.765 44.649C21.995 45.869 23.137 47.103 23.979 48.606L17 55.586L13.414 52ZM3 23C3 20.794 4.794 19 7 19C9.206 19 11 20.794 11 23H13C13 19.778 10.445 17.148 7.256 17.013C7.08557 16.3556 6.99954 15.6791 7 15C7 10.589 10.589 7 15 7C16.4216 7.00085 17.8172 7.38146 19.0424 8.10245C20.2676 8.82344 21.278 9.85864 21.969 11.101C20.8911 11.73 19.9753 12.6024 19.2948 13.6486C18.6143 14.6948 18.188 15.8856 18.05 17.126C16.304 17.556 15 19.123 15 21H17C17 19.897 17.897 19 19 19C20.103 19 21 19.897 21 21H23C23 19.165 21.752 17.632 20.065 17.162C20.475 14.25 22.976 12 26 12C29.309 12 32 14.691 32 18C32 18.526 31.914 19.041 31.78 19.543C30.14 20.364 29 22.044 29 24H31C31 22.346 32.346 21 34 21C35.654 21 37 22.346 37 24C37 25.654 35.654 27 34 27H7C4.794 27 3 25.206 3 23ZM27 29V32C27 33.654 28.346 35 30 35H38C38.2575 35.0115 38.5006 35.1219 38.6787 35.3082C38.8568 35.4945 38.9563 35.7423 38.9563 36C38.9563 36.2577 38.8568 36.5055 38.6787 36.6918C38.5006 36.8781 38.2575 36.9885 38 37H28C26.346 37 25 38.346 25 40C25 41.654 26.346 43 28 43H30C30.551 43 31 43.448 31 44V49H27C26.7967 49 26.5993 49.02 26.408 49.06C25.266 46.253 23.304 44.327 21.394 42.464C18.62 39.759 16 37.203 16 32C16 30.989 16.121 29.987 16.308 29H27ZM19.337 43.249L12 50.586L8.414 47L16.044 39.37C16.983 40.844 18.147 42.074 19.337 43.249ZM7.381 48.795L15.205 56.619L8.581 59.167L4.833 55.419L7.381 48.795ZM3.934 60.954C3.501 61.122 3 60.777 3 60.313C3 60.2277 3.015 60.1457 3.045 60.067L4.047 57.461L6.538 59.952L3.934 60.954ZM32 61C31.2899 60.9995 30.592 60.815 29.9744 60.4645C29.3568 60.1139 28.8406 59.6094 28.476 59H35.524C35.1594 59.6094 34.6432 60.1139 34.0256 60.4645C33.408 60.815 32.7101 60.9995 32 61ZM37 57H27C26.7425 56.9885 26.4994 56.8781 26.3213 56.6918C26.1431 56.5055 26.0437 56.2577 26.0437 56C26.0437 55.7423 26.1431 55.4945 26.3213 55.3082C26.4994 55.1219 26.7425 55.0115 27 55H37C37.2575 55.0115 37.5006 55.1219 37.6787 55.3082C37.8568 55.4945 37.9563 55.7423 37.9563 56C37.9563 56.2577 37.8568 56.5055 37.6787 56.6918C37.5006 56.8781 37.2575 56.9885 37 57ZM61 46H60.945C59.354 46 57.934 46.95 57.314 48.452C57.0117 49.1689 56.9301 49.9597 57.0798 50.7232C57.2294 51.4867 57.6034 52.1882 58.154 52.738L58.196 52.78L56.78 54.196L56.738 54.154C55.61 53.026 53.926 52.695 52.419 53.327C51.7019 53.6214 51.0887 54.1228 50.6579 54.7672C50.227 55.4116 49.998 56.1698 50 56.945V57H48V56.945C48 55.354 47.05 53.934 45.548 53.313C44.8309 53.0106 44.0398 52.9291 43.2761 53.0789C42.5124 53.2287 41.8107 53.6031 41.261 54.154L41.219 54.196L39.864 52.841C39.944 52.572 40 52.294 40 52C40 51.29 39.742 50.646 39.328 50.131C39.95 48.452 40.925 47.109 42.06 45.869C42.49 49.319 45.435 52 49 52C52.86 52 56 48.859 56 45C56 41.141 52.86 38 49 38C48.902 38 48.807 38.01 48.71 38.014C49.387 36.609 49.852 34.98 49.969 33H50V33.055C50 34.646 50.95 36.067 52.451 36.686C53.168 36.9885 53.959 37.0702 54.7228 36.9205C55.4865 36.7709 56.1882 36.3968 56.738 35.846L56.78 35.804L58.196 37.22L58.154 37.262C57.028 38.389 56.698 40.072 57.327 41.58C57.6212 42.2973 58.1226 42.9107 58.767 43.3417C59.4114 43.7727 60.1697 44.0019 60.945 44H61V46Z" fill="#4CDEB2"/>
</svg>
