<svg width="240" height="39" viewBox="0 0 240 39" fill="none" xmlns="http://www.w3.org/2000/svg">
<g clip-path="url(#clip0_229_808)">
<path d="M9.04797 17.4041C9.09097 17.1041 9.04797 16.7621 9.13397 16.5051C9.60497 15.1351 10.034 13.7221 10.59 12.3511C11.1886 10.9045 11.8313 9.47648 12.517 8.06907C13.417 6.18507 14.487 4.38607 15.9 2.80207C16.97 1.60207 18.17 0.532067 19.797 0.147067C20.824 -0.109933 21.767 -0.0239326 22.751 0.361067C24.121 0.961067 25.364 1.68807 26.391 2.75907C27.034 3.44407 27.633 4.21507 28.233 4.94307C28.703 5.50007 29.175 6.01307 29.603 6.57007C30.331 7.64007 31.059 8.71107 31.744 9.82507C32.944 11.8371 33.885 13.9791 34.742 16.1621C34.913 16.5911 35.084 17.0621 35.212 17.5321C35.256 17.6621 35.17 17.8321 35.17 17.9611C35.041 17.8751 34.913 17.8751 34.827 17.7471C34.185 16.8471 33.543 15.9061 32.857 15.0071C32.087 13.8931 31.017 13.0791 29.946 12.3081C28.19 11.0671 26.391 9.99607 24.336 9.31107C22.923 8.84007 21.424 8.45407 19.882 8.66907C18.4049 8.87432 17.0125 9.48141 15.857 10.4241C14.572 11.4941 13.373 12.6511 12.174 13.7641C11.4956 14.443 10.8386 15.143 10.204 15.8631C9.94797 16.1631 9.77597 16.5911 9.56197 16.9331C9.47697 17.1051 9.34797 17.2331 9.21997 17.4041C9.13397 17.4471 9.09097 17.4041 9.04797 17.4041Z" fill="white"/>
<path d="M17.613 38.1301C17.784 38.0451 17.955 37.9591 18.127 37.9161C19.069 37.7451 20.011 37.6161 20.91 37.3601C21.767 37.1451 22.623 36.9311 23.394 36.5461C25.621 35.4321 27.719 34.1051 29.517 32.3491C30.631 31.2361 31.616 30.0371 32.215 28.5391C32.515 27.7671 32.643 26.9541 32.686 26.1401C32.815 24.5131 32.344 22.9711 31.83 21.4721C31.359 20.1451 30.93 18.7751 30.374 17.4901C30.031 16.7201 29.56 16.0341 29.132 15.3061C29.046 15.1351 28.918 14.9631 28.747 14.7061C29.303 14.7921 29.689 15.0491 29.946 15.3061C31.3803 16.6979 32.7935 18.1114 34.185 19.5461C35.941 21.3011 37.397 23.3141 38.681 25.4121C39.495 26.7821 40.137 28.2381 40.351 29.8661C40.566 31.6641 40.009 33.2491 38.553 34.4481C37.611 35.2181 36.626 35.9891 35.427 36.3751C33.8 36.8881 32.087 37.4021 30.374 37.7881C27.077 38.5161 23.694 38.7301 20.311 38.6011C19.54 38.5591 18.811 38.4731 18.041 38.4301C17.913 38.4301 17.784 38.3441 17.656 38.3021C17.656 38.2591 17.656 38.1731 17.613 38.1301Z" fill="white"/>
<path d="M8.83501 37.188C7.12201 37.188 5.45201 37.103 3.78201 36.546C2.54001 36.118 1.46901 35.39 0.784013 34.276C0.184013 33.334 0.0990131 32.221 0.0140131 31.107C-0.0719869 29.523 0.270013 28.067 0.741013 26.568C1.12701 25.369 1.38301 24.17 1.85501 23.014C2.66801 21.044 3.52501 19.074 4.68101 17.276C5.49401 16.034 6.26501 14.792 7.07901 13.55C7.29301 13.25 7.54901 12.95 7.80701 12.694C7.85001 12.651 8.02101 12.608 8.06401 12.608C8.10701 12.694 8.19201 12.822 8.14901 12.908C7.89201 13.678 7.59301 14.407 7.29301 15.135C6.82201 16.205 6.47901 17.275 6.35101 18.475C6.13701 20.487 6.13701 22.5 6.43701 24.47C6.73701 26.44 7.25001 28.367 8.44901 30.037C9.25739 31.1852 10.3911 32.065 11.704 32.563C13.16 33.12 14.658 33.505 16.157 33.891C17.057 34.148 17.999 34.319 18.941 34.448C19.711 34.533 20.525 34.533 21.339 34.576C21.424 34.576 21.553 34.533 21.639 34.533C21.725 34.533 21.809 34.619 21.939 34.662C21.853 34.747 21.809 34.833 21.724 34.876C21.039 35.133 20.397 35.39 19.711 35.561C18.512 35.861 17.271 36.118 16.029 36.375C13.588 36.845 11.233 37.188 8.83501 37.188ZM199.908 31.793C198.28 31.578 196.996 30.722 196.525 29.052C196.225 27.896 196.182 26.697 196.011 25.541C196.011 25.412 195.968 25.284 196.054 25.198C196.782 24.428 198.237 24.684 198.58 24.855C199.137 25.155 199.18 25.712 199.18 25.755C199.222 28.41 199.865 29.138 202.52 29.223C205.474 29.266 208.386 29.309 211.341 29.138C213.568 29.009 214.767 26.697 213.782 24.598C213.354 23.742 212.497 23.528 211.641 23.528C209.372 23.4853 207.102 23.4853 204.832 23.528C204.104 23.528 203.804 23.399 203.847 22.586C203.933 20.616 203.89 20.659 205.86 20.659H211.898C213.011 20.659 213.825 19.802 213.953 18.732C214.21 16.077 213.097 15.434 210.656 15.349C207.701 15.22 204.704 15.392 201.749 15.563C200.122 15.648 199.565 16.376 199.565 18.003C199.522 19.117 199.437 19.246 198.28 19.246H198.109C196.225 19.246 196.011 19.074 196.353 17.233C196.867 14.278 197.809 12.823 201.192 12.651C204.704 12.437 208.215 12.523 211.727 12.565C212.669 12.565 213.696 12.908 214.596 13.251C215.623 13.636 216.309 14.45 216.651 15.521C217.208 17.276 217.55 19.203 216.565 20.744C215.88 21.858 216.094 22.372 216.565 23.399C217.55 25.541 217.251 27.81 216.266 29.909C216.033 30.3696 215.694 30.7687 215.277 31.0736C214.86 31.3786 214.378 31.5809 213.868 31.664C209.8 32.264 202.22 32.05 199.908 31.793ZM236.007 13.379C237.035 13.379 237.163 13.293 237.163 12.223C237.163 10.724 237.121 9.18299 237.078 7.68299C237.035 6.39899 237.078 6.39899 238.362 6.35599C238.577 6.35599 238.748 6.31299 238.962 6.31299C239.99 6.31299 240.033 6.44199 239.99 7.51299C239.904 9.09699 239.947 24.941 239.947 31.279C239.947 32.007 239.733 32.221 239.005 32.221C235.451 32.178 228.042 32.178 224.488 32.178C222.433 32.178 221.019 31.15 220.591 29.138C219.649 25.027 219.649 20.873 220.506 16.762C221.019 14.321 222.347 13.336 224.831 13.379H236.007ZM237.121 22.929C237.121 21.215 237.078 19.503 237.121 17.789C237.121 17.019 236.864 16.676 236.05 16.719C233.738 16.762 227.528 16.719 225.216 16.719C223.803 16.719 223.118 17.105 223.032 18.518C222.861 21.215 222.732 23.913 222.904 26.611C222.989 28.624 223.674 28.966 225.73 28.924C227.957 28.881 233.995 28.924 236.221 28.966C236.949 28.966 237.206 28.709 237.163 27.981C237.121 26.311 237.121 24.641 237.121 22.928" fill="white"/>
<path d="M126.596 13.5071C126.596 12.7801 126.853 12.5231 127.581 12.5231C133.19 12.5231 138.757 12.5651 144.367 12.5231C145.095 12.5231 145.352 12.7801 145.309 13.5071C145.266 14.5351 145.223 15.6061 145.309 16.6341C145.352 17.4041 145.052 17.7041 144.324 17.7041C141.541 17.6611 133.876 17.6611 132.805 17.6611C132.291 17.6611 131.948 17.7901 132.034 18.3891C132.12 18.9031 131.863 19.5031 132.805 19.4591C136.488 19.4171 140.128 19.4591 143.81 19.4591C144.581 19.4591 144.924 19.6741 144.838 20.5301C144.752 21.5581 144.795 22.6291 144.838 23.6561C144.881 24.3841 144.581 24.6411 143.853 24.6411C140.17 24.6411 136.53 24.6411 132.848 24.5981C132.12 24.5981 131.991 24.8981 132.034 25.4981C132.077 26.0121 131.734 26.6971 132.805 26.6971C136.616 26.6541 140.427 26.6971 144.239 26.6541C145.052 26.6541 145.352 26.9111 145.309 27.7241C145.266 28.7943 145.266 29.8659 145.309 30.9361C145.352 31.6641 145.052 31.8361 144.41 31.8361C140.042 31.8361 128.78 31.7931 127.538 31.8361C126.81 31.8781 126.639 31.5781 126.639 30.8931V22.1581C126.596 22.2431 126.596 16.4191 126.596 13.5081M55.81 20.0171V30.6791C55.81 31.7491 55.725 31.8791 54.654 31.8791C53.498 31.8791 52.384 31.8791 51.271 31.9211C50.671 31.9211 50.372 31.7931 50.372 31.1071V13.3801C50.372 12.7801 50.586 12.5661 51.228 12.5661C52.642 12.6091 54.012 12.5661 55.425 12.6091C55.811 12.6091 56.325 12.8661 56.625 13.1661C58.894 15.4361 61.163 17.7481 63.433 20.0601C64.76 21.4301 66.045 22.8001 67.373 24.1711C67.501 24.3001 67.629 24.3851 67.886 24.6421C67.972 24.2571 68.015 24.0421 68.015 23.8291C68.015 20.4891 68.015 17.1491 67.972 13.7651C67.972 12.9521 68.229 12.5661 69.042 12.6091C70.199 12.6521 71.355 12.6091 72.554 12.5661C73.196 12.5661 73.41 12.8661 73.41 13.4661C73.41 19.3321 73.41 25.1561 73.453 31.0231C73.453 31.7081 73.196 31.8791 72.597 31.8791C71.098 31.8791 69.642 31.9221 68.143 31.8791C67.801 31.8791 67.415 31.6651 67.158 31.4511L56.496 20.5301C56.282 20.3591 56.11 20.2741 55.81 20.0171ZM87.885 22.1151C92.595 25.2841 96.706 28.1101 101.545 31.3651C102.102 31.7931 101.245 31.9211 100.946 31.9211C98.462 31.9211 95.978 31.9641 93.537 31.8781C92.937 31.8351 92.296 31.4501 91.782 31.1081C88.742 29.0951 85.787 27.0391 82.746 25.0271C82.446 24.8551 82.018 24.4701 81.719 24.6841C81.462 24.8981 81.504 25.2411 81.504 25.2411V30.8081C81.547 31.7071 81.162 31.9211 80.391 31.9211C79.235 31.8781 78.079 31.9211 76.879 31.9211C76.323 31.9211 76.066 31.7071 76.066 31.1511V13.7631C76.066 12.6071 76.109 12.5641 77.222 12.6071C78.292 12.6071 79.363 12.6071 80.434 12.5641C81.162 12.5221 81.462 12.8641 81.419 13.5491C81.419 15.2191 81.376 16.8891 81.419 18.5171C81.419 18.8171 81.376 19.2451 81.676 19.3731C81.933 19.5021 82.276 19.2451 82.532 19.0731C85.658 17.0611 88.742 14.9631 91.867 12.9501C92.2622 12.6939 92.7241 12.5597 93.195 12.5641C95.635 12.5221 98.077 12.5221 100.517 12.5221C101.288 12.5221 101.717 12.9501 100.946 13.3781C99.147 14.5771 97.306 15.7331 95.464 16.9321C93.109 18.4741 90.797 19.9721 88.484 21.5141C88.3058 21.7348 88.1047 21.9359 87.884 22.1141M162.182 26.7821C163.252 26.5251 163.252 26.2681 163.381 25.5831C163.424 25.2831 163.424 24.9411 163.424 24.6411C163.467 23.2281 163.467 23.2281 164.923 23.2281C165.95 23.2281 166.978 23.1851 167.963 23.2711C168.263 23.2711 168.734 23.3991 168.734 23.7851C168.605 25.3691 168.605 26.9971 168.177 28.5381C167.578 30.8511 165.608 31.5361 163.509 31.8351C160.154 32.2561 156.761 32.2706 153.403 31.8781C149.892 31.4931 148.136 29.7381 147.665 26.0121C147.28 23.1001 147.28 20.1881 147.879 17.3191C148.35 15.0921 149.635 13.4651 152.033 12.9941C156.315 12.0941 160.64 12.1371 164.923 13.0361C167.492 13.5501 168.348 15.3061 168.691 17.8761C168.819 18.7751 168.777 19.6741 168.777 20.5731C168.777 21.0871 168.562 21.3011 168.049 21.3011C166.892 21.3011 165.736 21.3441 164.58 21.3441C163.595 21.3441 163.424 21.1301 163.424 20.1441C163.467 18.0471 163.124 17.9181 161.454 17.6611C159.099 17.4901 156.401 17.4471 154.046 17.8751C153.446 18.0041 153.189 18.2611 153.104 18.8171C152.675 21.2151 152.718 23.6131 153.146 26.0121C153.189 26.3541 153.832 26.7391 154.217 26.7821C157 27.2531 160.084 27.1251 162.182 26.7821ZM193.271 22.2861C193.271 25.1561 193.228 27.9811 193.271 30.8501C193.271 31.6641 193.014 31.9211 192.2 31.8781C191.087 31.8351 189.931 31.8781 188.817 31.8781C188.089 31.9211 187.747 31.6641 187.747 30.8511C187.789 29.0521 187.747 27.2531 187.789 25.4121C187.789 24.8121 187.618 24.5981 186.976 24.5981H177.641C176.955 24.5981 176.656 24.7701 176.698 25.5411C176.741 27.3391 176.698 29.1381 176.698 30.9791C176.698 31.6211 176.527 31.8791 175.842 31.8351C174.729 31.7931 173.615 31.8351 172.545 31.8351C171.389 31.8351 171.346 31.8351 171.346 30.5941V18.7741C171.346 17.0191 171.389 15.2201 171.346 13.4641C171.346 12.6941 171.603 12.4371 172.373 12.4801C173.486 12.5228 174.6 12.5228 175.714 12.4801C176.484 12.4371 176.741 12.7371 176.741 13.4651V18.5181C176.741 19.2031 176.955 19.4601 177.641 19.4601C180.767 19.4171 183.935 19.4171 187.061 19.4601C187.704 19.4601 187.832 19.1171 187.832 18.6031C187.832 16.9331 187.832 15.2201 187.789 13.5501C187.789 12.7801 188.046 12.4371 188.86 12.5231C190.016 12.6081 191.172 12.5651 192.371 12.5231C193.057 12.4801 193.271 12.7801 193.271 13.4651C193.228 16.4191 193.228 19.3751 193.271 22.2861ZM113.578 12.5651H123.341C124.412 12.5651 124.455 12.6081 124.455 13.6791C124.455 14.7061 124.412 15.7771 124.497 16.8051C124.54 17.5331 124.24 17.7041 123.598 17.7041C121.842 17.6611 119.187 17.7041 117.432 17.6181C116.661 17.5761 116.361 17.8331 116.361 18.6461C116.404 22.7141 116.361 26.7821 116.404 30.8931C116.404 31.6211 116.147 31.8781 115.419 31.8781C114.277 31.8355 113.135 31.8355 111.993 31.8781C111.222 31.8781 110.923 31.6641 110.923 30.8081C110.966 26.8251 110.966 22.8431 110.966 18.8181C110.966 17.7041 110.88 17.6181 109.767 17.6181C107.968 17.6181 104.885 17.6611 103.086 17.6611C102.572 17.6611 102.315 17.4471 102.315 16.9761V13.2081C102.315 12.6081 102.658 12.4371 103.258 12.4371C106.255 12.5651 110.537 12.5231 113.578 12.5651Z" fill="#6988F4"/>
</g>
<defs>
<clipPath id="clip0_229_808">
<rect width="240" height="39" fill="white"/>
</clipPath>
</defs>
</svg>
