<svg width="74" height="74" viewBox="0 0 74 74" fill="none" xmlns="http://www.w3.org/2000/svg">
<path d="M66.7 63.4H55.7C55.4083 63.4 55.1285 63.2841 54.9222 63.0778C54.7159 62.8715 54.6 62.5917 54.6 62.3C54.6 62.0083 54.7159 61.7285 54.9222 61.5222C55.1285 61.3159 55.4083 61.2 55.7 61.2H65.6V18.3C65.6 18.0083 65.7159 17.7285 65.9222 17.5222C66.1285 17.3159 66.4083 17.2 66.7 17.2C66.9917 17.2 67.2715 17.3159 67.4778 17.5222C67.6841 17.7285 67.8 18.0083 67.8 18.3V62.3C67.8 62.5917 67.6841 62.8715 67.4778 63.0778C67.2715 63.2841 66.9917 63.4 66.7 63.4ZM20.5 63.4H7.3C7.00826 63.4 6.72847 63.2841 6.52218 63.0778C6.31589 62.8715 6.2 62.5917 6.2 62.3V18.3C6.2 18.0083 6.31589 17.7285 6.52218 17.5222C6.72847 17.3159 7.00826 17.2 7.3 17.2C7.59174 17.2 7.87153 17.3159 8.07782 17.5222C8.28411 17.7285 8.4 18.0083 8.4 18.3V61.2H20.5C20.7917 61.2 21.0715 61.3159 21.2778 61.5222C21.4841 61.7285 21.6 62.0083 21.6 62.3C21.6 62.5917 21.4841 62.8715 21.2778 63.0778C21.0715 63.2841 20.7917 63.4 20.5 63.4ZM68.9 15H44.7C44.4083 15 44.1285 14.8841 43.9222 14.6778C43.7159 14.4715 43.6 14.1917 43.6 13.9C43.6 13.6083 43.7159 13.3285 43.9222 13.1222C44.1285 12.9159 44.4083 12.8 44.7 12.8H68.9C69.1917 12.8 69.4715 12.9159 69.6778 13.1222C69.8841 13.3285 70 13.6083 70 13.9C70 14.1917 69.8841 14.4715 69.6778 14.6778C69.4715 14.8841 69.1917 15 68.9 15ZM27.1 15H5.1C4.80826 15 4.52847 14.8841 4.32218 14.6778C4.11589 14.4715 4 14.1917 4 13.9C4 13.6083 4.11589 13.3285 4.32218 13.1222C4.52847 12.9159 4.80826 12.8 5.1 12.8H27.1C27.3917 12.8 27.6715 12.9159 27.8778 13.1222C28.0841 13.3285 28.2 13.6083 28.2 13.9C28.2 14.1917 28.0841 14.4715 27.8778 14.6778C27.6715 14.8841 27.3917 15 27.1 15ZM68.9 10.6H44.7C44.4083 10.6 44.1285 10.4841 43.9222 10.2778C43.7159 10.0715 43.6 9.79174 43.6 9.5C43.6 9.20826 43.7159 8.92847 43.9222 8.72218C44.1285 8.51589 44.4083 8.4 44.7 8.4H68.9C69.1917 8.4 69.4715 8.51589 69.6778 8.72218C69.8841 8.92847 70 9.20826 70 9.5C70 9.79174 69.8841 10.0715 69.6778 10.2778C69.4715 10.4841 69.1917 10.6 68.9 10.6ZM27.1 10.6H5.1C4.80826 10.6 4.52847 10.4841 4.32218 10.2778C4.11589 10.0715 4 9.79174 4 9.5C4 9.20826 4.11589 8.92847 4.32218 8.72218C4.52847 8.51589 4.80826 8.4 5.1 8.4H27.1C27.3917 8.4 27.6715 8.51589 27.8778 8.72218C28.0841 8.92847 28.2 9.20826 28.2 9.5C28.2 9.79174 28.0841 10.0715 27.8778 10.2778C27.6715 10.4841 27.3917 10.6 27.1 10.6ZM35.9 30.4C35.7134 30.4 35.5299 30.3525 35.3668 30.2621C35.2036 30.1717 35.0661 30.0412 34.9672 29.883L29.4672 21.083C29.3616 20.9168 29.3028 20.7252 29.2969 20.5283C29.291 20.3315 29.3383 20.1367 29.4337 19.9645C29.5292 19.7922 29.6693 19.6489 29.8394 19.5496C30.0094 19.4502 30.2031 19.3986 30.4 19.4H41.4C41.5961 19.4007 41.7884 19.4537 41.9572 19.5535C42.1259 19.6533 42.265 19.7964 42.3601 19.9679C42.4551 20.1394 42.5027 20.3331 42.4979 20.5291C42.4931 20.7252 42.4361 20.9164 42.3328 21.083L36.8328 29.883C36.7339 30.0412 36.5964 30.1717 36.4332 30.2621C36.2701 30.3525 36.0866 30.4 35.9 30.4ZM32.3844 21.6L35.9 27.2254L39.4156 21.6H32.3844Z" fill="#4CDEB2"/>
<path d="M42.5 21.6H29.3C27.4806 21.6 26 20.1194 26 18.3V7.3C26 5.4806 27.4806 4 29.3 4H42.5C44.3194 4 45.8 5.4806 45.8 7.3V18.3C45.8 20.1194 44.3194 21.6 42.5 21.6ZM29.3 6.2C29.0083 6.2 28.7285 6.31589 28.5222 6.52218C28.3159 6.72847 28.2 7.00826 28.2 7.3V18.3C28.2 18.5917 28.3159 18.8715 28.5222 19.0778C28.7285 19.2841 29.0083 19.4 29.3 19.4H42.5C42.7917 19.4 43.0715 19.2841 43.2778 19.0778C43.4841 18.8715 43.6 18.5917 43.6 18.3V7.3C43.6 7.00826 43.4841 6.72847 43.2778 6.52218C43.0715 6.31589 42.7917 6.2 42.5 6.2H29.3Z" fill="#4CDEB2"/>
<path d="M31.5 15C32.1075 15 32.6 14.5075 32.6 13.9C32.6 13.2925 32.1075 12.8 31.5 12.8C30.8925 12.8 30.4 13.2925 30.4 13.9C30.4 14.5075 30.8925 15 31.5 15Z" fill="#4CDEB2"/>
<path d="M31.5 10.6C32.1075 10.6 32.6 10.1075 32.6 9.5C32.6 8.89249 32.1075 8.4 31.5 8.4C30.8925 8.4 30.4 8.89249 30.4 9.5C30.4 10.1075 30.8925 10.6 31.5 10.6Z" fill="#4CDEB2"/>
<path d="M62.3 23.8H53.5C53.2083 23.8 52.9285 23.6841 52.7222 23.4778C52.5159 23.2715 52.4 22.9917 52.4 22.7C52.4 22.4083 52.5159 22.1285 52.7222 21.9222C52.9285 21.7159 53.2083 21.6 53.5 21.6H62.3C62.5917 21.6 62.8715 21.7159 63.0778 21.9222C63.2841 22.1285 63.4 22.4083 63.4 22.7C63.4 22.9917 63.2841 23.2715 63.0778 23.4778C62.8715 23.6841 62.5917 23.8 62.3 23.8ZM55.7 28.2H46.9C46.6083 28.2 46.3285 28.0841 46.1222 27.8778C45.9159 27.6715 45.8 27.3917 45.8 27.1C45.8 26.8083 45.9159 26.5285 46.1222 26.3222C46.3285 26.1159 46.6083 26 46.9 26H55.7C55.9917 26 56.2715 26.1159 56.4778 26.3222C56.6841 26.5285 56.8 26.8083 56.8 27.1C56.8 27.3917 56.6841 27.6715 56.4778 27.8778C56.2715 28.0841 55.9917 28.2 55.7 28.2ZM38.1 54.6C37.9052 54.6001 37.7139 54.5485 37.5456 54.4504L24.3456 46.7504C24.1805 46.6527 24.0437 46.5137 23.9487 46.347C23.8537 46.1804 23.8037 45.9918 23.8037 45.8C23.8037 45.6082 23.8537 45.4196 23.9487 45.253C24.0437 45.0863 24.1805 44.9473 24.3456 44.8496L29.7378 41.7036C29.9899 41.5566 30.29 41.5157 30.5722 41.5899C30.8544 41.6642 31.0956 41.8475 31.2426 42.0996C31.3896 42.3517 31.4305 42.6518 31.3563 42.934C31.282 43.2162 31.0987 43.4574 30.8466 43.6044L27.0824 45.8L38.1 52.2262L49.1176 45.8L47.4258 44.8144C47.301 44.7416 47.1917 44.6449 47.1043 44.5299C47.0169 44.4149 46.9529 44.2837 46.9161 44.144C46.8794 44.0043 46.8705 43.8587 46.89 43.7155C46.9095 43.5723 46.957 43.4344 47.0298 43.3096C47.1026 43.1848 47.1993 43.0755 47.3143 42.9881C47.4293 42.9006 47.5605 42.8367 47.7002 42.7999C47.8399 42.7632 47.9855 42.7543 48.1287 42.7738C48.2719 42.7933 48.4098 42.8408 48.5346 42.9136L51.8544 44.8496C52.0195 44.9473 52.1563 45.0863 52.2513 45.253C52.3463 45.4196 52.3963 45.6082 52.3963 45.8C52.3963 45.9918 52.3463 46.1804 52.2513 46.347C52.1563 46.5137 52.0195 46.6527 51.8544 46.7504L38.6544 54.4504C38.4861 54.5485 38.2948 54.6001 38.1 54.6Z" fill="#4CDEB2"/>
<path d="M38.1 70C37.8083 70 37.5285 69.8841 37.3222 69.6778C37.1159 69.4715 37 69.1917 37 68.9V53.5C37 53.1084 37.209 52.7476 37.5456 52.5496L50.7456 44.8496C50.9129 44.7528 51.1027 44.7016 51.296 44.7013C51.4893 44.701 51.6792 44.7515 51.8468 44.8478C52.0144 44.9441 52.1538 45.0827 52.2509 45.2498C52.348 45.417 52.3994 45.6067 52.4 45.8V61.2C52.4001 61.3923 52.3497 61.5812 52.254 61.748C52.1582 61.9147 52.0205 62.0535 51.8544 62.1504L38.6544 69.8504C38.4861 69.9485 38.2948 70.0001 38.1 70ZM39.2 54.1314V66.9838L50.2 60.5664V47.714L39.2 54.1314Z" fill="#4CDEB2"/>
<path d="M38.1 70C37.9052 70.0001 37.7139 69.9485 37.5456 69.8504L24.3456 62.1504C24.1795 62.0535 24.0418 61.9147 23.946 61.748C23.8503 61.5812 23.7999 61.3923 23.8 61.2V45.8C23.8009 45.6068 23.8525 45.4172 23.9496 45.2501C24.0466 45.0831 24.1859 44.9444 24.3533 44.848C24.5207 44.7516 24.7106 44.7008 24.9038 44.7007C25.097 44.7006 25.2868 44.7512 25.4544 44.8474L38.6544 52.5474C38.8208 52.6445 38.9588 52.7836 39.0545 52.9508C39.1503 53.1179 39.2004 53.3073 39.2 53.5V68.9C39.2 69.1917 39.0841 69.4715 38.8778 69.6778C38.6715 69.8841 38.3917 70 38.1 70ZM26 60.5686L37 66.986V54.1336L26 47.7162V60.5686ZM38.1 37C37.8083 37 37.5285 36.8841 37.3222 36.6778C37.1159 36.4715 37 36.1917 37 35.9V33.7C37 33.4083 36.8841 33.1285 36.6778 32.9222C36.4715 32.7159 36.1917 32.6 35.9 32.6C35.6083 32.6 35.3285 32.7159 35.1222 32.9222C34.9159 33.1285 34.8 33.4083 34.8 33.7V35.9C34.8 37.7194 36.2806 39.2 38.1 39.2H42.5C42.7917 39.2 43.0715 39.3159 43.2778 39.5222C43.4841 39.7285 43.6 40.0083 43.6 40.3C43.6 40.5917 43.4841 40.8715 43.2778 41.0778C43.0715 41.2841 42.7917 41.4 42.5 41.4H30.62C30.3283 41.4 30.0485 41.5159 29.8422 41.7222C29.6359 41.9285 29.52 42.2083 29.52 42.5C29.52 42.7917 29.6359 43.0715 29.8422 43.2778C30.0485 43.4841 30.3283 43.6 30.62 43.6H42.5C44.3194 43.6 45.8 42.1194 45.8 40.3C45.8 38.4806 44.3194 37 42.5 37H38.1Z" fill="#4CDEB2"/>
</svg>
