<svg width="74" height="74" viewBox="0 0 74 74" fill="none" xmlns="http://www.w3.org/2000/svg">
<g clip-path="url(#clip0_249_1241)">
<path d="M17.8663 19.018C18.1962 18.6076 18.5676 18.1983 18.9979 17.8015C21.7831 15.2327 25.9732 14.5976 31.5458 14.5985M31.5711 18.8C27.0875 18.7628 23.7961 19.1056 21.872 20.8801C21.1186 21.5751 20.5924 22.4117 20.0352 23.2976C19.0668 24.8375 17.9692 26.583 15.6113 27.6775C14.3689 28.2542 13.008 28.543 11.5427 28.543C10.5363 28.543 9.48084 28.4069 8.38056 28.1341C7.24845 27.8535 6.55944 26.7138 6.84169 25.5885C7.12394 24.4631 8.2707 23.778 9.40268 24.059C11.141 24.4897 12.6283 24.4267 13.8232 23.8721C14.3199 23.6416 14.712 23.3507 15.0569 23M43.7199 59.4H70.8415C71.6194 59.4 72.25 60.0268 72.25 60.8V63.6C72.25 64.3732 71.6194 65 70.8415 65H50.1208M72.25 37V41.2C72.25 41.9732 71.6194 42.6 70.8415 42.6H43.7993C44.9661 42.6 45.912 43.5402 45.912 44.7C45.912 45.8598 44.9661 46.8 43.7993 46.8M72.25 37H23.6584V32.8C23.6584 32.0268 24.289 31.4 25.0669 31.4H70.8415C71.6194 31.4 72.25 32.0268 72.25 32.8L72.25 37ZM43.7993 55.2H65.2077M43.7993 55.2H9.29225M43.7993 55.2C44.9661 55.2 45.912 56.1402 45.912 57.3C45.912 58.4598 44.9661 59.4 43.7993 59.4M43.7993 55.2C44.9661 55.2 45.912 54.2598 45.912 53.1C45.912 51.9402 44.9661 51 43.7993 51M65.2077 55.2C66.3745 55.2 67.3204 56.1402 67.3204 57.3C67.3204 58.4598 66.3745 59.4 65.2077 59.4M65.2077 55.2C66.3745 55.2 67.3204 54.2598 67.3204 53.1C67.3204 51.9402 66.3745 51 65.2077 51M65.2077 51C66.3745 51 67.3204 50.0598 67.3204 48.9C67.3204 47.7402 66.3745 46.8 65.2077 46.8M65.2077 51L43.7993 51M43.7993 46.8H65.2077M43.7993 46.8L9.29225 46.8M43.7993 46.8C44.9661 46.8 45.912 47.7402 45.912 48.9C45.912 50.0598 44.9661 51 43.7993 51M65.2077 46.8C66.3745 46.8 67.3204 45.8598 67.3204 44.7C67.3204 43.5402 66.3745 42.6 65.2077 42.6M43.7993 51L9.29225 51M39.8901 9H70.8415C71.6194 9 72.25 9.62678 72.25 10.4V13.2C72.25 13.9732 71.6194 14.6 70.8415 14.6H25.0669C24.289 14.6 23.6584 13.9732 23.6584 13.2V10.4C23.6584 9.62678 24.289 9 25.0669 9H34.9815M57.0613 27.2H65.2077M65.2077 27.2C66.3746 27.2 67.3204 28.1402 67.3204 29.3C67.3204 30.4598 66.3746 31.4 65.2077 31.4M65.2077 27.2C66.3745 27.2 67.3204 26.2598 67.3204 25.1C67.3204 23.9402 66.3745 23 65.2077 23M30.7007 31.4C29.5339 31.4 28.588 30.4598 28.588 29.3C28.588 28.1402 29.5339 27.2 30.7007 27.2M30.7007 27.2H52.0986M30.7007 27.2C29.5339 27.2 28.588 26.2598 28.588 25.1C28.588 23.9402 29.5339 23 30.7007 23M65.2077 23C66.3745 23 67.3204 22.0598 67.3204 20.9C67.3204 19.7402 66.3745 18.8 65.2077 18.8H30.7007C29.5339 18.8 28.588 19.7402 28.588 20.9C28.588 22.0598 29.5339 23 30.7007 23M65.2077 23H30.7007M64.3627 14.6V18.8M31.5458 18.8V14.6M36.2582 59.4H49.4331C50.211 59.4 50.8415 60.0268 50.8415 60.8V63.6C50.8415 64.3732 50.211 65 49.4331 65H3.65846C2.88071 65 2.25001 64.3732 2.25001 63.6V60.8C2.25001 60.0268 2.88071 59.4 3.65846 59.4H31.3137M9.29225 59.4C8.12549 59.4 7.17958 58.4598 7.17958 57.3C7.17958 56.1402 8.12549 55.2 9.29225 55.2M9.29225 55.2C8.12549 55.2 7.17958 54.2598 7.17958 53.1C7.17958 51.9402 8.12549 51 9.29225 51M9.29225 51C8.12549 51 7.17958 50.0598 7.17958 48.9C7.17958 47.7402 8.12549 46.8 9.29225 46.8M9.29225 46.8C8.12549 46.8 7.17958 45.8598 7.17958 44.7C7.17958 43.5402 8.12549 42.6 9.29225 42.6M49.4331 42.6H3.65845C2.88056 42.6 2.25 41.9732 2.25 41.2V38.4C2.25 37.6268 2.88056 37 3.65845 37H49.4331C50.211 37 50.8415 37.6268 50.8415 38.4V41.2C50.8415 41.9732 50.211 42.6 49.4331 42.6Z" stroke="#4CDEB2" stroke-width="2.2" stroke-miterlimit="10" stroke-linecap="round" stroke-linejoin="round"/>
</g>
<defs>
<clipPath id="clip0_249_1241">
<rect width="74" height="74" fill="white"/>
</clipPath>
</defs>
</svg>
