<svg width="74" height="74" viewBox="0 0 74 74" fill="none" xmlns="http://www.w3.org/2000/svg">
<path d="M45.2 42.5H43.99C43.7678 42.5005 43.5508 42.4325 43.3686 42.3054C43.1864 42.1782 43.0477 41.9981 42.9714 41.7894C42.8378 41.4392 42.6933 41.0932 42.538 40.7521C42.4439 40.5497 42.4146 40.3232 42.454 40.1035C42.4933 39.8838 42.5995 39.6816 42.758 39.5245L43.6204 38.661C44.9007 37.3695 44.8983 35.2866 43.6149 33.9981L40.5063 30.8895C39.2161 29.6069 37.1325 29.6069 35.8423 30.8895L34.9799 31.7508C34.8224 31.9088 34.6203 32.0146 34.4007 32.0539C34.1812 32.0933 33.9548 32.0643 33.7523 31.9708C33.4097 31.8159 33.0635 31.6692 32.7139 31.5308C32.5041 31.4551 32.3229 31.3164 32.1951 31.1336C32.0673 30.9508 31.9991 30.733 32 30.51V29.3C32 27.4774 30.5226 26 28.7 26H24.3C22.4774 26 21 27.4774 21 29.3V30.51C21.0005 30.7322 20.9325 30.9492 20.8054 31.1314C20.6782 31.3136 20.4981 31.4523 20.2894 31.5286C19.9374 31.6628 19.5931 31.8069 19.2521 31.962C19.0496 32.0557 18.8232 32.0848 18.6036 32.0454C18.384 32.0061 18.1819 31.9001 18.0245 31.742L17.161 30.8796C15.871 29.5978 13.7881 29.5978 12.4981 30.8796L9.3895 33.9981C8.1069 35.2883 8.1069 37.3719 9.3895 38.6621L10.2508 39.5245C10.4093 39.6816 10.5155 39.8838 10.5548 40.1035C10.5942 40.3232 10.5649 40.5497 10.4708 40.7521C10.3154 41.0937 10.1705 41.44 10.0363 41.7905C9.95956 42.0003 9.81967 42.1813 9.63587 42.3083C9.45208 42.4354 9.23342 42.5023 9.01 42.5H7.8C5.97744 42.5 4.5 43.9774 4.5 45.8V50.2C4.5 52.0226 5.97744 53.5 7.8 53.5H9.01C9.2322 53.4995 9.44916 53.5675 9.63139 53.6946C9.81363 53.8218 9.95231 54.0019 10.0286 54.2106C10.1628 54.5626 10.3069 54.9069 10.462 55.2479C10.5561 55.4503 10.5854 55.6768 10.546 55.8965C10.5067 56.1162 10.4005 56.3184 10.242 56.4755L9.3796 57.339C8.09782 58.629 8.09782 60.7119 9.3796 62.0019L12.4882 65.1105C13.7784 66.3931 15.862 66.3931 17.1522 65.1105L18.0146 64.2492C18.1721 64.0912 18.3742 63.9854 18.5938 63.9461C18.8133 63.9067 19.0397 63.9357 19.2422 64.0292C19.5848 64.1841 19.931 64.3308 20.2806 64.4692C20.4913 64.5441 20.6737 64.6824 20.8025 64.8653C20.9314 65.0481 21.0004 65.2663 21 65.49V66.7C21 68.5226 22.4774 70 24.3 70H28.7C30.5226 70 32 68.5226 32 66.7V65.49C31.9995 65.2678 32.0675 65.0508 32.1946 64.8686C32.3218 64.6864 32.5019 64.5477 32.7106 64.4714C33.0626 64.3372 33.4069 64.1931 33.7479 64.038C33.9504 63.9443 34.1768 63.9152 34.3964 63.9546C34.616 63.9939 34.8181 64.0999 34.9755 64.258L35.839 65.1204C37.1308 66.4001 39.2131 66.3976 40.5019 65.1149L43.6105 62.0063C44.8931 60.7161 44.8931 58.6325 43.6105 57.3423L42.7492 56.4799C42.5907 56.3228 42.4845 56.1206 42.4452 55.9009C42.4058 55.6812 42.4351 55.4547 42.5292 55.2523C42.6841 54.9097 42.8308 54.5635 42.9692 54.2139C43.0449 54.0041 43.1836 53.8229 43.3664 53.6951C43.5492 53.5673 43.767 53.4991 43.99 53.5H45.2C47.0226 53.5 48.5 52.0226 48.5 50.2V45.8C48.5 43.9774 47.0226 42.5 45.2 42.5ZM46.3 50.2C46.3 50.4917 46.1841 50.7715 45.9778 50.9778C45.7715 51.1841 45.4917 51.3 45.2 51.3H43.99C43.3219 51.3025 42.6702 51.507 42.1205 51.8867C41.5708 52.2664 41.1488 52.8035 40.91 53.4274C40.7937 53.7346 40.6675 54.038 40.5316 54.3371C40.2553 54.947 40.1704 55.6263 40.2883 56.2854C40.4061 56.9445 40.7211 57.5524 41.1916 58.0287L42.0518 58.89C42.154 58.9921 42.2351 59.1133 42.2905 59.2467C42.3458 59.3802 42.3743 59.5232 42.3744 59.6677C42.3745 59.8121 42.3461 59.9552 42.2909 60.0887C42.2357 60.2222 42.1547 60.3435 42.0526 60.4457L38.9432 63.5551C38.7369 63.7613 38.4572 63.8772 38.1655 63.8772C37.8738 63.8772 37.5941 63.7613 37.3878 63.5551L36.5254 62.6938C36.0493 62.223 35.4414 61.9078 34.7822 61.7899C34.123 61.6721 33.4436 61.7571 32.8338 62.0338C32.5353 62.1692 32.2326 62.2954 31.9263 62.4122C31.3028 62.6509 30.7661 63.0726 30.3866 63.6219C30.0071 64.1712 29.8026 64.8224 29.8 65.49V66.7C29.8 66.9917 29.6841 67.2715 29.4778 67.4778C29.2715 67.6841 28.9917 67.8 28.7 67.8H24.3C24.0083 67.8 23.7285 67.6841 23.5222 67.4778C23.3159 67.2715 23.2 66.9917 23.2 66.7V65.49C23.1975 64.8219 22.993 64.1702 22.6133 63.6205C22.2336 63.0708 21.6965 62.6488 21.0726 62.41C20.7654 62.2937 20.462 62.1675 20.1629 62.0316C19.553 61.7555 18.8737 61.6707 18.2147 61.7886C17.5556 61.9064 16.9478 62.2213 16.4713 62.6916L15.61 63.5518C15.5079 63.654 15.3867 63.7351 15.2533 63.7905C15.1198 63.8458 14.9768 63.8743 14.8323 63.8744C14.6879 63.8745 14.5448 63.8461 14.4113 63.7909C14.2778 63.7357 14.1565 63.6547 14.0543 63.5526L10.9449 60.4465C10.7387 60.2402 10.6228 59.9605 10.6228 59.6688C10.6228 59.3771 10.7387 59.0974 10.9449 58.8911L11.8062 58.0287C12.2767 57.5524 12.5917 56.9445 12.7095 56.2854C12.8273 55.6263 12.7425 54.947 12.4662 54.3371C12.3308 54.0386 12.2046 53.7359 12.0878 53.4296C11.8496 52.8055 11.4282 52.2681 10.8788 51.888C10.3295 51.5079 9.67801 51.3029 9.01 51.3H7.8C7.50826 51.3 7.22847 51.1841 7.02218 50.9778C6.81589 50.7715 6.7 50.4917 6.7 50.2V45.8C6.7 45.5083 6.81589 45.2285 7.02218 45.0222C7.22847 44.8159 7.50826 44.7 7.8 44.7H9.01C9.67808 44.6975 10.3298 44.493 10.8795 44.1133C11.4292 43.7336 11.8512 43.1965 12.09 42.5726C12.2066 42.2646 12.3327 41.9614 12.4684 41.6629C12.7447 41.053 12.8295 40.3737 12.7117 39.7146C12.5939 39.0555 12.2789 38.4477 11.8084 37.9713L10.9438 37.11C10.8416 37.0079 10.7605 36.8867 10.7051 36.7533C10.6498 36.6198 10.6213 36.4768 10.6212 36.3323C10.6211 36.1879 10.6495 36.0448 10.7047 35.9113C10.7599 35.7778 10.8409 35.6565 10.943 35.5543L14.0524 32.4449C14.2587 32.2387 14.5384 32.1228 14.8301 32.1228C15.1218 32.1228 15.4015 32.2387 15.6078 32.4449L16.4702 33.3062C16.9463 33.777 17.5542 34.0922 18.2134 34.2101C18.8726 34.3279 19.552 34.2429 20.1618 33.9662C20.4603 33.8308 20.763 33.7046 21.0693 33.5878C21.6936 33.3498 22.2313 32.9284 22.6116 32.3791C22.9919 31.8297 23.197 31.1781 23.2 30.51V29.3C23.2 29.0083 23.3159 28.7285 23.5222 28.5222C23.7285 28.3159 24.0083 28.2 24.3 28.2H28.7C28.9917 28.2 29.2715 28.3159 29.4778 28.5222C29.6841 28.7285 29.8 29.0083 29.8 29.3V30.51C29.8025 31.1781 30.007 31.8298 30.3867 32.3795C30.7664 32.9292 31.3035 33.3512 31.9274 33.59C32.2354 33.7066 32.5386 33.8327 32.8371 33.9684C33.4469 34.2451 34.1263 34.3301 34.7855 34.2123C35.4447 34.0944 36.0526 33.7792 36.5287 33.3084L37.39 32.4482C37.5972 32.2433 37.8769 32.1284 38.1683 32.1284C38.4597 32.1284 38.7393 32.2433 38.9465 32.4482L42.0551 35.5568C42.2613 35.7631 42.3772 36.0428 42.3772 36.3345C42.3772 36.6262 42.2613 36.9059 42.0551 37.1122L41.1938 37.9746C40.7233 38.451 40.4083 39.0588 40.2905 39.7179C40.1727 40.377 40.2575 41.0563 40.5338 41.6662C40.6692 41.9647 40.7954 42.2674 40.9122 42.5737C41.1509 43.1972 41.5726 43.7339 42.1219 44.1134C42.6712 44.4929 43.3224 44.6974 43.99 44.7H45.2C45.4917 44.7 45.7715 44.8159 45.9778 45.0222C46.1841 45.2285 46.3 45.5083 46.3 45.8V50.2Z" fill="#4CDEB2"/>
<path d="M36.378 47.56C36.368 47.2964 36.3474 47.0333 36.3164 46.7713C36.2812 46.4897 36.2394 46.2103 36.1811 45.9364C36.1426 45.7571 36.092 45.58 36.0436 45.4018C35.9822 45.1761 35.9129 44.9527 35.8357 44.7319C35.7818 44.579 35.7257 44.4272 35.6685 44.2765C35.527 43.9242 35.365 43.5804 35.1834 43.2469C35.1691 43.2216 35.1603 43.1941 35.146 43.1688C34.8598 42.6594 34.5285 42.1768 34.156 41.7267C34.1241 41.6871 34.0878 41.6497 34.0548 41.6112C33.9042 41.4322 33.7467 41.259 33.5829 41.092C33.4971 41.0029 33.4069 40.9193 33.3167 40.8335C33.2067 40.7312 33.0967 40.63 32.9867 40.5332C32.8535 40.4176 32.7175 40.3053 32.5786 40.1966L32.3982 40.0624C30.6961 38.7876 28.6266 38.099 26.5 38.1C26.39 38.1 26.28 38.1165 26.17 38.1209C25.9341 38.1269 25.6986 38.1416 25.4638 38.1649C25.3395 38.1781 25.2141 38.1924 25.0898 38.21C24.7312 38.2571 24.3754 38.3236 24.0239 38.4091C18.7273 39.7778 15.543 45.1813 16.9117 50.4779C17.3546 52.1917 18.2486 53.7555 19.5008 55.0066C20.7529 56.2578 22.3174 57.1505 24.0316 57.592C24.0492 57.592 24.0679 57.5975 24.0866 57.6019C24.4664 57.6968 24.8513 57.7702 25.2394 57.8219C25.4957 57.8538 25.752 57.8604 26.0094 57.8725C26.181 57.8813 26.3394 57.9066 26.5187 57.9066C26.8322 57.9066 27.1578 57.8857 27.49 57.8527C27.5252 57.8527 27.5604 57.8428 27.6 57.8384C27.873 57.8088 28.1446 57.7673 28.414 57.7141C28.524 57.6932 28.6263 57.6657 28.7319 57.6415C28.928 57.5969 29.1228 57.5466 29.316 57.4908C29.47 57.4446 29.6196 57.3907 29.7703 57.3379C29.921 57.2851 30.0772 57.2279 30.2334 57.1685C30.3896 57.1091 30.5205 57.0409 30.6624 56.9749C30.8472 56.8902 31.0309 56.8066 31.2124 56.7076H31.219C32.2456 56.158 33.1938 55.4732 34.0383 54.6715C34.2664 54.4586 34.4648 54.2159 34.6279 53.9499C35.4865 52.5735 36.0505 51.0341 36.2845 49.4289C36.3153 49.2166 36.3428 49.0043 36.3593 48.7876C36.3747 48.5885 36.3857 48.3905 36.3901 48.1925C36.3901 48.1298 36.3989 48.0704 36.3989 48.0077C36.4 47.8526 36.3846 47.7096 36.378 47.56ZM34.1857 48.2805C34.1857 48.3718 34.178 48.4631 34.1725 48.5533C34.1519 48.8213 34.1189 49.0881 34.0735 49.353C33.8705 50.4823 33.4181 51.5521 32.7495 52.4845C32.0808 53.4169 31.2126 54.1885 30.2081 54.743C30.0749 54.8132 29.94 54.88 29.8033 54.9432L29.712 54.9872C29.0729 55.2773 28.3983 55.4815 27.7056 55.5944C27.6572 55.6021 27.6077 55.6109 27.5582 55.6175C27.4207 55.6373 27.2854 55.6538 27.1512 55.6659C26.9726 55.6812 26.7936 55.6904 26.6144 55.6934H26.3845C26.1243 55.6904 25.8643 55.6743 25.6057 55.645L25.4737 55.6296C25.1712 55.5901 24.8711 55.5335 24.575 55.4602C20.4552 54.4057 17.9703 50.2111 19.0247 46.0914C19.3668 44.7548 20.0617 43.5348 21.0367 42.5587C22.0118 41.5827 23.2311 40.8866 24.5673 40.5431V40.542C25.1992 40.3827 25.8483 40.3014 26.5 40.3C26.8145 40.3017 27.1286 40.323 27.4405 40.3638C27.5241 40.3737 27.6066 40.3891 27.6891 40.4012C27.9267 40.4386 28.1621 40.4859 28.3942 40.5453C28.4701 40.5651 28.546 40.5827 28.6208 40.6036C29.2057 40.7725 29.7687 41.0095 30.2983 41.3098C30.383 41.3593 30.4655 41.411 30.5491 41.4627C30.7229 41.5727 30.8912 41.6827 31.0573 41.8081C31.1464 41.873 31.2366 41.9368 31.3224 42.0061C31.5382 42.1786 31.7449 42.3622 31.9417 42.5561C32.0198 42.6353 32.0913 42.7222 32.1672 42.8047C32.2937 42.9422 32.4169 43.083 32.5346 43.2315C32.6159 43.3345 32.6947 43.4394 32.7711 43.5461C32.8811 43.7045 32.9911 43.8695 33.0901 44.0367C33.1451 44.128 33.2001 44.2171 33.2562 44.3106C33.3981 44.5717 33.5244 44.8409 33.6346 45.1169C33.6786 45.2269 33.716 45.3369 33.7556 45.4469C33.8271 45.6493 33.8887 45.8539 33.9426 46.0607C33.9701 46.1707 34.0009 46.2686 34.024 46.3753C34.0882 46.6726 34.1348 46.9734 34.1637 47.2762C34.1703 47.3565 34.1703 47.4379 34.1758 47.5182C34.1912 47.7712 34.1956 48.0253 34.1857 48.2805ZM67.2 27.1H63.7405C63.5156 27.1022 63.2956 27.0338 63.1117 26.9043C62.9277 26.7749 62.7891 26.5909 62.7153 26.3784C62.374 25.3566 61.9612 24.3601 61.48 23.3963C61.3803 23.1933 61.3471 22.9641 61.385 22.7412C61.4229 22.5183 61.53 22.313 61.6912 22.1544L64.1442 19.6981C65.4318 18.4096 65.4318 16.3215 64.1442 15.033L59.467 10.3635C58.1785 9.07595 56.0904 9.07595 54.8019 10.3635L52.35 12.8143C52.1916 12.9754 51.9866 13.0826 51.7639 13.1207C51.5412 13.1588 51.3121 13.1259 51.1092 13.0266C50.1454 12.5427 49.1485 12.1277 48.126 11.7847C47.9127 11.7117 47.7278 11.5733 47.5975 11.3893C47.4672 11.2053 47.3981 10.985 47.4 10.7595V7.3C47.4 5.47744 45.9226 4 44.1 4H37.5C35.6774 4 34.2 5.47744 34.2 7.3V10.7595C34.2023 10.9844 34.1338 11.2044 34.0043 11.3883C33.8749 11.5723 33.6909 11.7109 33.4784 11.7847C32.4565 12.1278 31.46 12.5424 30.4963 13.0255C30.2934 13.1254 30.0641 13.1587 29.8412 13.1208C29.6182 13.0829 29.4129 12.9756 29.2544 12.8143L26.7981 10.3613C25.5081 9.07746 23.423 9.07746 22.133 10.3613L17.4646 15.0297C16.1764 16.3184 16.1764 18.4073 17.4646 19.6959L21.0715 23.3094C21.2787 23.5101 21.5564 23.6214 21.8448 23.6193C22.1332 23.6172 22.4093 23.5019 22.6136 23.2982C22.8178 23.0946 22.9339 22.8188 22.9368 22.5304C22.9397 22.242 22.8292 21.9639 22.6291 21.7562L19.02 18.1438C18.8138 17.9375 18.6979 17.6578 18.6979 17.3661C18.6979 17.0744 18.8138 16.7947 19.02 16.5884L23.6884 11.92C23.8947 11.7138 24.1744 11.5979 24.4661 11.5979C24.7578 11.5979 25.0375 11.7138 25.2438 11.92L27.7012 14.373C28.1859 14.8607 28.8121 15.1832 29.4907 15.2945C30.1692 15.4059 30.8656 15.3005 31.4808 14.9934C32.3521 14.557 33.253 14.1824 34.1769 13.8725C34.8271 13.6524 35.3917 13.2333 35.7907 12.6746C36.1896 12.116 36.4028 11.446 36.4 10.7595V7.3C36.4 7.00826 36.5159 6.72847 36.7222 6.52218C36.9285 6.31589 37.2083 6.2 37.5 6.2H44.1C44.3917 6.2 44.6715 6.31589 44.8778 6.52218C45.0841 6.72847 45.2 7.00826 45.2 7.3V10.7595C45.1972 11.4459 45.4104 12.1157 45.8094 12.6742C46.2084 13.2327 46.7729 13.6515 47.4231 13.8714C48.3474 14.1816 49.2487 14.5565 50.1203 14.9934C50.7358 15.2989 51.4317 15.4033 52.1097 15.2917C52.7878 15.1802 53.4136 14.8584 53.8988 14.3719L56.3562 11.92C56.5625 11.7138 56.8422 11.5979 57.1339 11.5979C57.4256 11.5979 57.7053 11.7138 57.9116 11.92L62.58 16.5895C62.7859 16.7957 62.9015 17.0752 62.9015 17.3666C62.9015 17.6581 62.7859 17.9376 62.58 18.1438L60.127 20.6012C59.6399 21.0863 59.3178 21.7124 59.2064 22.3908C59.0951 23.0692 59.2001 23.7654 59.5066 24.3808C59.943 25.2521 60.3176 26.153 60.6275 27.0769C60.8475 27.7273 61.2665 28.2919 61.8252 28.6909C62.3839 29.0899 63.054 29.303 63.7405 29.3H67.2C67.4917 29.3 67.7715 29.4159 67.9778 29.6222C68.1841 29.8285 68.3 30.1083 68.3 30.4V37C68.3 37.2917 68.1841 37.5715 67.9778 37.7778C67.7715 37.9841 67.4917 38.1 67.2 38.1H63.7405C63.0541 38.0972 62.3843 38.3104 61.8258 38.7094C61.2673 39.1084 60.8485 39.6729 60.6286 40.3231C60.3184 41.2474 59.9435 42.1487 59.5066 43.0203C59.2007 43.6357 59.0961 44.3317 59.2076 45.0098C59.3192 45.688 59.6412 46.3138 60.1281 46.7988L62.5811 49.2562C62.7873 49.4625 62.9032 49.7422 62.9032 50.0339C62.9032 50.3256 62.7873 50.6053 62.5811 50.8116L57.9105 55.48C57.7043 55.6859 57.4248 55.8015 57.1334 55.8015C56.8419 55.8015 56.5624 55.6859 56.3562 55.48L52.7416 51.8731C52.5386 51.6636 52.2607 51.5432 51.969 51.5386C51.6773 51.534 51.3957 51.6454 51.1862 51.8484C51.0801 51.9511 50.9958 52.0741 50.9383 52.2101C50.8808 52.3461 50.8513 52.4923 50.8515 52.64C50.8517 52.7877 50.8817 52.9338 50.9395 53.0696C50.9974 53.2055 51.0821 53.3283 51.1884 53.4307L54.8019 57.0376C56.0904 58.3251 58.1785 58.3251 59.467 57.0376L64.1354 52.3703C65.4236 51.0816 65.4236 48.9928 64.1354 47.7041L61.6857 45.25C61.5248 45.0915 61.4177 44.8864 61.3796 44.6638C61.3415 44.4412 61.3743 44.2122 61.4734 44.0092C61.9573 43.0454 62.3723 42.0485 62.7153 41.026C62.7883 40.8127 62.9267 40.6278 63.1107 40.4975C63.2947 40.3671 63.515 40.2981 63.7405 40.3H67.2C69.0226 40.3 70.5 38.8226 70.5 37V30.4C70.5 28.5774 69.0226 27.1 67.2 27.1Z" fill="#4CDEB2"/>
<path d="M50.9112 23.5888C45.3235 18.0128 36.2765 18.0128 30.6888 23.5888C30.4884 23.7963 30.3776 24.0741 30.3801 24.3625C30.3826 24.651 30.4983 24.9269 30.7022 25.1308C30.9061 25.3347 31.182 25.4504 31.4705 25.4529C31.7589 25.4554 32.0367 25.3446 32.2442 25.1442C36.9378 20.3873 44.5989 20.336 49.3558 25.0295C54.1128 29.7231 54.164 37.3842 49.4705 42.1411C49.4325 42.1796 49.3943 42.2178 49.3558 42.2558C49.146 42.4585 49.0252 42.7362 49.0202 43.0279C49.0151 43.3196 49.1262 43.6014 49.3289 43.8112C49.4314 43.9174 49.5544 44.0019 49.6903 44.0596C49.8262 44.1172 49.9724 44.147 50.12 44.147C50.2677 44.147 50.4138 44.1172 50.5498 44.0596C50.6857 44.0019 50.8086 43.9174 50.9112 43.8112C56.4872 38.2235 56.4872 29.1765 50.9112 23.5888Z" fill="#4CDEB2"/>
</svg>
