<svg width="74" height="74" viewBox="0 0 74 74" fill="none" xmlns="http://www.w3.org/2000/svg">
<mask id="mask0_249_1277" style="mask-type:luminance" maskUnits="userSpaceOnUse" x="0" y="0" width="74" height="74">
<path d="M0 0.000213623H73.9998V74H0V0.000213623Z" fill="white"/>
</mask>
<g mask="url(#mask0_249_1277)">
<path d="M24.0193 22.6679L21.1493 25.1836C18.529 27.4805 16.6608 30.5249 15.8578 33.9156C15.42 35.7642 15.0954 37.9301 15.1201 40.243C15.1311 41.2688 15.9693 42.0938 16.9951 42.0938H26.0904" stroke="#4CDEB2" stroke-width="2.2" stroke-miterlimit="10" stroke-linecap="round" stroke-linejoin="round"/>
<path d="M15.4525 35.9507H24.7757" stroke="#4CDEB2" stroke-width="2.2" stroke-miterlimit="10" stroke-linecap="round" stroke-linejoin="round"/>
<path d="M49.8622 22.5643L52.8506 25.1838C55.4709 27.4805 57.339 30.5249 58.1421 33.9158C58.5798 35.7643 58.9045 37.9301 58.8797 40.243C58.8687 41.2689 58.0305 42.0938 57.0047 42.0938H55.2145" stroke="#4CDEB2" stroke-width="2.2" stroke-miterlimit="10" stroke-linecap="round" stroke-linejoin="round"/>
<path d="M50.1825 42.0938H48.1607" stroke="#4CDEB2" stroke-width="2.2" stroke-miterlimit="10" stroke-linecap="round" stroke-linejoin="round"/>
<path d="M58.5472 35.9507H49.224" stroke="#4CDEB2" stroke-width="2.2" stroke-miterlimit="10" stroke-linecap="round" stroke-linejoin="round"/>
<path d="M25.6118 16.3691C25.2754 17.3593 24.9842 18.3644 24.7393 19.3811C23.7234 23.5988 23.5633 27.9768 24.179 32.2714C24.8448 36.9152 26.4708 45.8743 29.8162 52.9731C29.978 53.3168 30.2341 53.6074 30.5548 53.8109C30.8755 54.0144 31.2475 54.1225 31.6274 54.1226H42.3725C43.1479 54.1226 43.8531 53.6745 44.1836 52.9731C47.5291 45.8742 49.1551 36.9152 49.8208 32.2714C50.4366 27.9768 50.2765 23.5988 49.2606 19.3811C47.0966 10.3975 41.8584 4.52059 38.9785 1.85082C37.8631 0.816845 36.1367 0.816845 35.0214 1.85082C33.0624 3.66685 30.0124 6.96663 27.5809 11.7187" stroke="#4CDEB2" stroke-width="2.2" stroke-miterlimit="10" stroke-linecap="round" stroke-linejoin="round"/>
<path d="M27.8142 47.98H46.1854" stroke="#4CDEB2" stroke-width="2.2" stroke-miterlimit="10" stroke-linecap="round" stroke-linejoin="round"/>
<path d="M43.4828 22.7715C43.4828 26.3518 40.5803 29.2544 36.9999 29.2544C33.4194 29.2544 30.5169 26.3518 30.5169 22.7715C30.5169 19.191 33.4194 16.2885 36.9999 16.2885C40.5803 16.2885 43.4828 19.191 43.4828 22.7715Z" stroke="#4CDEB2" stroke-width="2.2" stroke-miterlimit="10" stroke-linecap="round" stroke-linejoin="round"/>
<path d="M28.9045 57.6787C28.9045 57.6787 27.0966 60.0016 26.808 62.4697" stroke="#4CDEB2" stroke-width="2.2" stroke-miterlimit="10" stroke-linecap="round" stroke-linejoin="round"/>
<path d="M21.5239 69.9902C20.246 69.1793 19.3979 67.7517 19.3979 66.1261C19.3979 63.6004 21.4455 61.5528 23.9711 61.5528C25.4929 61.5528 26.8411 62.2961 27.6726 63.4394" stroke="#4CDEB2" stroke-width="2.2" stroke-miterlimit="10" stroke-linecap="round" stroke-linejoin="round"/>
<path d="M15.4685 67.1393C15.497 65.726 14.8721 64.3191 13.6596 63.3994C11.6473 61.8731 8.7785 62.2672 7.25211 64.2796C4.83194 67.4704 7.09009 72.1256 10.8024 72.9243" stroke="#4CDEB2" stroke-width="2.2" stroke-miterlimit="10" stroke-linecap="round" stroke-linejoin="round"/>
<path d="M13.8405 63.1449C14.7178 61.6234 16.6624 61.101 18.1838 61.9783C19.1006 62.5069 19.6546 63.4229 19.7582 64.4004" stroke="#4CDEB2" stroke-width="2.2" stroke-miterlimit="10" stroke-linecap="round" stroke-linejoin="round"/>
<path d="M45.0952 57.6787C45.0952 57.6787 46.9031 60.0016 47.1917 62.4697" stroke="#4CDEB2" stroke-width="2.2" stroke-miterlimit="10" stroke-linecap="round" stroke-linejoin="round"/>
<path d="M52.4758 69.9902C53.7538 69.1793 54.6019 67.7517 54.6019 66.1261C54.6019 63.6004 52.5543 61.5528 50.0286 61.5528C48.5068 61.5528 47.1587 62.2961 46.3272 63.4394" stroke="#4CDEB2" stroke-width="2.2" stroke-miterlimit="10" stroke-linecap="round" stroke-linejoin="round"/>
<path d="M58.5312 67.1393C58.5027 65.726 59.1277 64.3191 60.3402 63.3994C62.3525 61.8731 65.2212 62.2672 66.7476 64.2796C69.1678 67.4704 66.9097 72.1256 63.1974 72.9243" stroke="#4CDEB2" stroke-width="2.2" stroke-miterlimit="10" stroke-linecap="round" stroke-linejoin="round"/>
<path d="M60.1592 63.1449C59.2819 61.6234 57.3374 61.101 55.8159 61.9783C54.8991 62.5069 54.3451 63.4229 54.2415 64.4004" stroke="#4CDEB2" stroke-width="2.2" stroke-miterlimit="10" stroke-linecap="round" stroke-linejoin="round"/>
<path d="M39.3666 54.233H34.633C30.4932 57.5333 32.2608 63.6209 36.3726 66.1311C36.5615 66.2462 36.7785 66.3071 36.9998 66.3071C37.221 66.3071 37.438 66.2462 37.627 66.1311C41.7387 63.6209 43.5064 57.5333 39.3666 54.233Z" stroke="#4CDEB2" stroke-width="2.2" stroke-miterlimit="10" stroke-linecap="round" stroke-linejoin="round"/>
<path d="M45.0936 9.35693H28.9063" stroke="#4CDEB2" stroke-width="2.2" stroke-miterlimit="10" stroke-linecap="round" stroke-linejoin="round"/>
</g>
</svg>
